<svg xmlns="http://www.w3.org/2000/svg" xmlns:xlink="http://www.w3.org/1999/xlink" width="130" zoomAndPan="magnify" viewBox="0 0 97.5 97.499997" height="130" preserveAspectRatio="xMidYMid meet" version="1.0"><defs><g/><clipPath id="dd664b7bd7"><path d="M 6 6 L 91 6 L 91 91 L 6 91 Z M 6 6 " clip-rule="nonzero"/></clipPath><clipPath id="d759b55f3c"><path d="M 27.28125 6.0625 L 69.71875 6.0625 C 70.414062 6.0625 71.109375 6.097656 71.800781 6.164062 C 72.492188 6.234375 73.179688 6.335938 73.859375 6.46875 C 74.542969 6.605469 75.214844 6.773438 75.878906 6.976562 C 76.546875 7.179688 77.199219 7.410156 77.839844 7.679688 C 78.484375 7.945312 79.109375 8.242188 79.722656 8.566406 C 80.335938 8.894531 80.929688 9.253906 81.507812 9.640625 C 82.085938 10.023438 82.644531 10.4375 83.183594 10.878906 C 83.71875 11.320312 84.234375 11.785156 84.726562 12.277344 C 85.214844 12.769531 85.683594 13.285156 86.125 13.820312 C 86.5625 14.359375 86.976562 14.914062 87.363281 15.492188 C 87.75 16.070312 88.105469 16.667969 88.433594 17.277344 C 88.761719 17.890625 89.058594 18.519531 89.324219 19.160156 C 89.589844 19.804688 89.824219 20.457031 90.027344 21.121094 C 90.226562 21.789062 90.398438 22.460938 90.53125 23.140625 C 90.667969 23.824219 90.769531 24.511719 90.835938 25.203125 C 90.90625 25.894531 90.941406 26.585938 90.941406 27.28125 L 90.941406 69.71875 C 90.941406 70.414062 90.90625 71.109375 90.835938 71.800781 C 90.769531 72.492188 90.667969 73.179688 90.53125 73.859375 C 90.398438 74.542969 90.226562 75.214844 90.027344 75.878906 C 89.824219 76.546875 89.589844 77.199219 89.324219 77.839844 C 89.058594 78.484375 88.761719 79.109375 88.433594 79.722656 C 88.105469 80.335938 87.75 80.929688 87.363281 81.507812 C 86.976562 82.085938 86.5625 82.644531 86.125 83.183594 C 85.683594 83.71875 85.214844 84.234375 84.726562 84.726562 C 84.234375 85.214844 83.71875 85.683594 83.183594 86.125 C 82.644531 86.5625 82.085938 86.976562 81.507812 87.363281 C 80.929688 87.75 80.335938 88.105469 79.722656 88.433594 C 79.109375 88.761719 78.484375 89.058594 77.839844 89.324219 C 77.199219 89.589844 76.546875 89.824219 75.878906 90.027344 C 75.214844 90.226562 74.542969 90.398438 73.859375 90.53125 C 73.179688 90.667969 72.492188 90.769531 71.800781 90.835938 C 71.109375 90.90625 70.414062 90.941406 69.71875 90.941406 L 27.28125 90.941406 C 26.585938 90.941406 25.894531 90.90625 25.203125 90.835938 C 24.511719 90.769531 23.824219 90.667969 23.140625 90.53125 C 22.460938 90.398438 21.789062 90.226562 21.121094 90.027344 C 20.457031 89.824219 19.804688 89.589844 19.160156 89.324219 C 18.519531 89.058594 17.890625 88.761719 17.277344 88.433594 C 16.667969 88.105469 16.070312 87.75 15.492188 87.363281 C 14.914062 86.976562 14.359375 86.5625 13.820312 86.125 C 13.285156 85.683594 12.769531 85.214844 12.277344 84.726562 C 11.785156 84.234375 11.320312 83.71875 10.878906 83.183594 C 10.4375 82.644531 10.023438 82.085938 9.640625 81.507812 C 9.253906 80.929688 8.894531 80.335938 8.566406 79.722656 C 8.242188 79.109375 7.945312 78.484375 7.679688 77.839844 C 7.410156 77.199219 7.179688 76.546875 6.976562 75.878906 C 6.773438 75.214844 6.605469 74.542969 6.46875 73.859375 C 6.335938 73.179688 6.234375 72.492188 6.164062 71.800781 C 6.097656 71.109375 6.0625 70.414062 6.0625 69.71875 L 6.0625 27.28125 C 6.0625 26.585938 6.097656 25.894531 6.164062 25.203125 C 6.234375 24.511719 6.335938 23.824219 6.46875 23.140625 C 6.605469 22.460938 6.773438 21.789062 6.976562 21.121094 C 7.179688 20.457031 7.410156 19.804688 7.679688 19.160156 C 7.945312 18.519531 8.242188 17.890625 8.566406 17.277344 C 8.894531 16.667969 9.253906 16.070312 9.640625 15.492188 C 10.023438 14.914062 10.4375 14.359375 10.878906 13.820312 C 11.320312 13.285156 11.785156 12.769531 12.277344 12.277344 C 12.769531 11.785156 13.285156 11.320312 13.820312 10.878906 C 14.359375 10.4375 14.914062 10.023438 15.492188 9.640625 C 16.070312 9.253906 16.667969 8.894531 17.277344 8.566406 C 17.890625 8.242188 18.519531 7.945312 19.160156 7.679688 C 19.804688 7.410156 20.457031 7.179688 21.121094 6.976562 C 21.789062 6.773438 22.460938 6.605469 23.140625 6.46875 C 23.824219 6.335938 24.511719 6.234375 25.203125 6.164062 C 25.894531 6.097656 26.585938 6.0625 27.28125 6.0625 Z M 27.28125 6.0625 " clip-rule="nonzero"/></clipPath><linearGradient x1="-0.00000000241355" gradientTransform="matrix(84.87723, 0, 0, 84.87723, 6.062661, 6.062659)" y1="-0.00000000241355" x2="1" gradientUnits="userSpaceOnUse" y2="1" id="0f33f1ad2f"><stop stop-opacity="1" stop-color="rgb(14.509583%, 38.819885%, 92.158508%)" offset="0"/><stop stop-opacity="1" stop-color="rgb(14.498901%, 38.755798%, 92.010498%)" offset="0.0078125"/><stop stop-opacity="1" stop-color="rgb(14.477539%, 38.630676%, 91.712952%)" offset="0.015625"/><stop stop-opacity="1" stop-color="rgb(14.456177%, 38.505554%, 91.415405%)" offset="0.0234375"/><stop stop-opacity="1" stop-color="rgb(14.433289%, 38.378906%, 91.117859%)" offset="0.03125"/><stop stop-opacity="1" stop-color="rgb(14.411926%, 38.253784%, 90.821838%)" offset="0.0390625"/><stop stop-opacity="1" stop-color="rgb(14.390564%, 38.128662%, 90.524292%)" offset="0.046875"/><stop stop-opacity="1" stop-color="rgb(14.369202%, 38.00354%, 90.226746%)" offset="0.0546875"/><stop stop-opacity="1" stop-color="rgb(14.347839%, 37.876892%, 89.929199%)" offset="0.0625"/><stop stop-opacity="1" stop-color="rgb(14.326477%, 37.75177%, 89.633179%)" offset="0.0703125"/><stop stop-opacity="1" stop-color="rgb(14.305115%, 37.626648%, 89.335632%)" offset="0.078125"/><stop stop-opacity="1" stop-color="rgb(14.283752%, 37.501526%, 89.038086%)" offset="0.0859375"/><stop stop-opacity="1" stop-color="rgb(14.26239%, 37.374878%, 88.74054%)" offset="0.09375"/><stop stop-opacity="1" stop-color="rgb(14.241028%, 37.249756%, 88.444519%)" offset="0.101563"/><stop stop-opacity="1" stop-color="rgb(14.219666%, 37.124634%, 88.146973%)" offset="0.109375"/><stop stop-opacity="1" stop-color="rgb(14.198303%, 36.997986%, 87.849426%)" offset="0.117188"/><stop stop-opacity="1" stop-color="rgb(14.175415%, 36.872864%, 87.55188%)" offset="0.125"/><stop stop-opacity="1" stop-color="rgb(14.154053%, 36.747742%, 87.254333%)" offset="0.132813"/><stop stop-opacity="1" stop-color="rgb(14.13269%, 36.62262%, 86.958313%)" offset="0.140625"/><stop stop-opacity="1" stop-color="rgb(14.111328%, 36.495972%, 86.660767%)" offset="0.148438"/><stop stop-opacity="1" stop-color="rgb(14.089966%, 36.37085%, 86.36322%)" offset="0.15625"/><stop stop-opacity="1" stop-color="rgb(14.068604%, 36.245728%, 86.065674%)" offset="0.164063"/><stop stop-opacity="1" stop-color="rgb(14.047241%, 36.11908%, 85.769653%)" offset="0.171875"/><stop stop-opacity="1" stop-color="rgb(14.025879%, 35.993958%, 85.472107%)" offset="0.179688"/><stop stop-opacity="1" stop-color="rgb(14.004517%, 35.868835%, 85.174561%)" offset="0.1875"/><stop stop-opacity="1" stop-color="rgb(13.983154%, 35.743713%, 84.877014%)" offset="0.195312"/><stop stop-opacity="1" stop-color="rgb(13.961792%, 35.617065%, 84.580994%)" offset="0.203125"/><stop stop-opacity="1" stop-color="rgb(13.94043%, 35.491943%, 84.283447%)" offset="0.210938"/><stop stop-opacity="1" stop-color="rgb(13.919067%, 35.366821%, 83.985901%)" offset="0.21875"/><stop stop-opacity="1" stop-color="rgb(13.896179%, 35.241699%, 83.688354%)" offset="0.226563"/><stop stop-opacity="1" stop-color="rgb(13.874817%, 35.115051%, 83.392334%)" offset="0.234375"/><stop stop-opacity="1" stop-color="rgb(13.853455%, 34.989929%, 83.094788%)" offset="0.242188"/><stop stop-opacity="1" stop-color="rgb(13.832092%, 34.864807%, 82.797241%)" offset="0.25"/><stop stop-opacity="1" stop-color="rgb(13.81073%, 34.738159%, 82.499695%)" offset="0.257812"/><stop stop-opacity="1" stop-color="rgb(13.789368%, 34.613037%, 82.202148%)" offset="0.265625"/><stop stop-opacity="1" stop-color="rgb(13.768005%, 34.487915%, 81.906128%)" offset="0.273438"/><stop stop-opacity="1" stop-color="rgb(13.746643%, 34.362793%, 81.608582%)" offset="0.28125"/><stop stop-opacity="1" stop-color="rgb(13.725281%, 34.236145%, 81.311035%)" offset="0.289063"/><stop stop-opacity="1" stop-color="rgb(13.703918%, 34.111023%, 81.013489%)" offset="0.296875"/><stop stop-opacity="1" stop-color="rgb(13.682556%, 33.985901%, 80.717468%)" offset="0.304688"/><stop stop-opacity="1" stop-color="rgb(13.661194%, 33.859253%, 80.419922%)" offset="0.3125"/><stop stop-opacity="1" stop-color="rgb(13.638306%, 33.734131%, 80.122375%)" offset="0.320312"/><stop stop-opacity="1" stop-color="rgb(13.616943%, 33.609009%, 79.824829%)" offset="0.328125"/><stop stop-opacity="1" stop-color="rgb(13.595581%, 33.483887%, 79.528809%)" offset="0.335937"/><stop stop-opacity="1" stop-color="rgb(13.574219%, 33.357239%, 79.231262%)" offset="0.34375"/><stop stop-opacity="1" stop-color="rgb(13.552856%, 33.232117%, 78.933716%)" offset="0.351563"/><stop stop-opacity="1" stop-color="rgb(13.531494%, 33.106995%, 78.636169%)" offset="0.359375"/><stop stop-opacity="1" stop-color="rgb(13.510132%, 32.980347%, 78.340149%)" offset="0.367188"/><stop stop-opacity="1" stop-color="rgb(13.48877%, 32.855225%, 78.042603%)" offset="0.375"/><stop stop-opacity="1" stop-color="rgb(13.467407%, 32.730103%, 77.745056%)" offset="0.382812"/><stop stop-opacity="1" stop-color="rgb(13.446045%, 32.60498%, 77.44751%)" offset="0.390625"/><stop stop-opacity="1" stop-color="rgb(13.424683%, 32.478333%, 77.149963%)" offset="0.398437"/><stop stop-opacity="1" stop-color="rgb(13.40332%, 32.35321%, 76.853943%)" offset="0.40625"/><stop stop-opacity="1" stop-color="rgb(13.381958%, 32.228088%, 76.556396%)" offset="0.414062"/><stop stop-opacity="1" stop-color="rgb(13.35907%, 32.102966%, 76.25885%)" offset="0.421875"/><stop stop-opacity="1" stop-color="rgb(13.337708%, 31.976318%, 75.961304%)" offset="0.429688"/><stop stop-opacity="1" stop-color="rgb(13.316345%, 31.851196%, 75.665283%)" offset="0.4375"/><stop stop-opacity="1" stop-color="rgb(13.294983%, 31.726074%, 75.367737%)" offset="0.445312"/><stop stop-opacity="1" stop-color="rgb(13.273621%, 31.599426%, 75.07019%)" offset="0.453125"/><stop stop-opacity="1" stop-color="rgb(13.252258%, 31.474304%, 74.772644%)" offset="0.460938"/><stop stop-opacity="1" stop-color="rgb(13.230896%, 31.349182%, 74.476624%)" offset="0.46875"/><stop stop-opacity="1" stop-color="rgb(13.209534%, 31.22406%, 74.179077%)" offset="0.476562"/><stop stop-opacity="1" stop-color="rgb(13.188171%, 31.097412%, 73.881531%)" offset="0.484375"/><stop stop-opacity="1" stop-color="rgb(13.166809%, 30.97229%, 73.583984%)" offset="0.492187"/><stop stop-opacity="1" stop-color="rgb(13.145447%, 30.847168%, 73.287964%)" offset="0.5"/><stop stop-opacity="1" stop-color="rgb(13.124084%, 30.72052%, 72.990417%)" offset="0.5"/><stop stop-opacity="1" stop-color="rgb(13.113403%, 30.657959%, 72.842407%)" offset="0.507812"/><stop stop-opacity="1" stop-color="rgb(13.101196%, 30.595398%, 72.692871%)" offset="0.515625"/><stop stop-opacity="1" stop-color="rgb(13.079834%, 30.470276%, 72.395325%)" offset="0.523438"/><stop stop-opacity="1" stop-color="rgb(13.058472%, 30.345154%, 72.097778%)" offset="0.53125"/><stop stop-opacity="1" stop-color="rgb(13.037109%, 30.218506%, 71.801758%)" offset="0.539063"/><stop stop-opacity="1" stop-color="rgb(13.015747%, 30.093384%, 71.504211%)" offset="0.546875"/><stop stop-opacity="1" stop-color="rgb(12.994385%, 29.968262%, 71.206665%)" offset="0.554688"/><stop stop-opacity="1" stop-color="rgb(12.973022%, 29.84314%, 70.909119%)" offset="0.5625"/><stop stop-opacity="1" stop-color="rgb(12.95166%, 29.716492%, 70.613098%)" offset="0.570312"/><stop stop-opacity="1" stop-color="rgb(12.930298%, 29.59137%, 70.315552%)" offset="0.578125"/><stop stop-opacity="1" stop-color="rgb(12.908936%, 29.466248%, 70.018005%)" offset="0.585938"/><stop stop-opacity="1" stop-color="rgb(12.887573%, 29.3396%, 69.720459%)" offset="0.59375"/><stop stop-opacity="1" stop-color="rgb(12.866211%, 29.214478%, 69.424438%)" offset="0.601562"/><stop stop-opacity="1" stop-color="rgb(12.844849%, 29.089355%, 69.126892%)" offset="0.609375"/><stop stop-opacity="1" stop-color="rgb(12.82196%, 28.964233%, 68.829346%)" offset="0.617187"/><stop stop-opacity="1" stop-color="rgb(12.800598%, 28.837585%, 68.531799%)" offset="0.625"/><stop stop-opacity="1" stop-color="rgb(12.779236%, 28.712463%, 68.235779%)" offset="0.632813"/><stop stop-opacity="1" stop-color="rgb(12.757874%, 28.587341%, 67.938232%)" offset="0.640625"/><stop stop-opacity="1" stop-color="rgb(12.736511%, 28.460693%, 67.640686%)" offset="0.648438"/><stop stop-opacity="1" stop-color="rgb(12.715149%, 28.335571%, 67.34314%)" offset="0.65625"/><stop stop-opacity="1" stop-color="rgb(12.693787%, 28.210449%, 67.045593%)" offset="0.664062"/><stop stop-opacity="1" stop-color="rgb(12.672424%, 28.085327%, 66.749573%)" offset="0.671875"/><stop stop-opacity="1" stop-color="rgb(12.651062%, 27.958679%, 66.452026%)" offset="0.679688"/><stop stop-opacity="1" stop-color="rgb(12.6297%, 27.833557%, 66.15448%)" offset="0.6875"/><stop stop-opacity="1" stop-color="rgb(12.608337%, 27.708435%, 65.856934%)" offset="0.695312"/><stop stop-opacity="1" stop-color="rgb(12.586975%, 27.583313%, 65.560913%)" offset="0.703125"/><stop stop-opacity="1" stop-color="rgb(12.564087%, 27.456665%, 65.263367%)" offset="0.710937"/><stop stop-opacity="1" stop-color="rgb(12.542725%, 27.331543%, 64.96582%)" offset="0.71875"/><stop stop-opacity="1" stop-color="rgb(12.521362%, 27.206421%, 64.668274%)" offset="0.726562"/><stop stop-opacity="1" stop-color="rgb(12.5%, 27.079773%, 64.372253%)" offset="0.734375"/><stop stop-opacity="1" stop-color="rgb(12.478638%, 26.954651%, 64.074707%)" offset="0.742187"/><stop stop-opacity="1" stop-color="rgb(12.457275%, 26.829529%, 63.777161%)" offset="0.75"/><stop stop-opacity="1" stop-color="rgb(12.435913%, 26.704407%, 63.479614%)" offset="0.757813"/><stop stop-opacity="1" stop-color="rgb(12.414551%, 26.577759%, 63.183594%)" offset="0.765625"/><stop stop-opacity="1" stop-color="rgb(12.393188%, 26.452637%, 62.886047%)" offset="0.773438"/><stop stop-opacity="1" stop-color="rgb(12.371826%, 26.327515%, 62.588501%)" offset="0.78125"/><stop stop-opacity="1" stop-color="rgb(12.350464%, 26.200867%, 62.290955%)" offset="0.789062"/><stop stop-opacity="1" stop-color="rgb(12.329102%, 26.075745%, 61.993408%)" offset="0.796875"/><stop stop-opacity="1" stop-color="rgb(12.307739%, 25.950623%, 61.697388%)" offset="0.804688"/><stop stop-opacity="1" stop-color="rgb(12.284851%, 25.8255%, 61.399841%)" offset="0.8125"/><stop stop-opacity="1" stop-color="rgb(12.263489%, 25.698853%, 61.102295%)" offset="0.820312"/><stop stop-opacity="1" stop-color="rgb(12.242126%, 25.57373%, 60.804749%)" offset="0.828125"/><stop stop-opacity="1" stop-color="rgb(12.220764%, 25.448608%, 60.508728%)" offset="0.835937"/><stop stop-opacity="1" stop-color="rgb(12.199402%, 25.323486%, 60.211182%)" offset="0.84375"/><stop stop-opacity="1" stop-color="rgb(12.17804%, 25.196838%, 59.913635%)" offset="0.851563"/><stop stop-opacity="1" stop-color="rgb(12.156677%, 25.071716%, 59.616089%)" offset="0.859375"/><stop stop-opacity="1" stop-color="rgb(12.135315%, 24.946594%, 59.320068%)" offset="0.867188"/><stop stop-opacity="1" stop-color="rgb(12.113953%, 24.819946%, 59.022522%)" offset="0.875"/><stop stop-opacity="1" stop-color="rgb(12.09259%, 24.694824%, 58.724976%)" offset="0.882812"/><stop stop-opacity="1" stop-color="rgb(12.071228%, 24.569702%, 58.427429%)" offset="0.890625"/><stop stop-opacity="1" stop-color="rgb(12.049866%, 24.44458%, 58.131409%)" offset="0.898438"/><stop stop-opacity="1" stop-color="rgb(12.026978%, 24.317932%, 57.833862%)" offset="0.90625"/><stop stop-opacity="1" stop-color="rgb(12.005615%, 24.19281%, 57.536316%)" offset="0.914062"/><stop stop-opacity="1" stop-color="rgb(11.984253%, 24.067688%, 57.23877%)" offset="0.921875"/><stop stop-opacity="1" stop-color="rgb(11.962891%, 23.94104%, 56.941223%)" offset="0.929687"/><stop stop-opacity="1" stop-color="rgb(11.941528%, 23.815918%, 56.645203%)" offset="0.9375"/><stop stop-opacity="1" stop-color="rgb(11.920166%, 23.690796%, 56.347656%)" offset="0.945313"/><stop stop-opacity="1" stop-color="rgb(11.898804%, 23.565674%, 56.05011%)" offset="0.953125"/><stop stop-opacity="1" stop-color="rgb(11.877441%, 23.439026%, 55.752563%)" offset="0.960938"/><stop stop-opacity="1" stop-color="rgb(11.856079%, 23.313904%, 55.456543%)" offset="0.96875"/><stop stop-opacity="1" stop-color="rgb(11.834717%, 23.188782%, 55.158997%)" offset="0.976562"/><stop stop-opacity="1" stop-color="rgb(11.813354%, 23.062134%, 54.86145%)" offset="0.984375"/><stop stop-opacity="1" stop-color="rgb(11.791992%, 22.937012%, 54.563904%)" offset="0.992188"/><stop stop-opacity="1" stop-color="rgb(11.77063%, 22.81189%, 54.267883%)" offset="1"/></linearGradient><clipPath id="9e0409304a"><path d="M 12.125 12.125 L 84.878906 12.125 L 84.878906 84.878906 L 12.125 84.878906 Z M 12.125 12.125 " clip-rule="nonzero"/></clipPath><clipPath id="7ec9443597"><path d="M 18.839844 12.125 L 78.160156 12.125 C 81.871094 12.125 84.878906 15.132812 84.878906 18.839844 L 84.878906 78.160156 C 84.878906 81.871094 81.871094 84.878906 78.160156 84.878906 L 18.839844 84.878906 C 15.132812 84.878906 12.125 81.871094 12.125 78.160156 L 12.125 18.839844 C 12.125 15.132812 15.132812 12.125 18.839844 12.125 Z M 18.839844 12.125 " clip-rule="nonzero"/></clipPath><clipPath id="d1332e3fa8"><path d="M 0.125 0.125 L 72.878906 0.125 L 72.878906 72.878906 L 0.125 72.878906 Z M 0.125 0.125 " clip-rule="nonzero"/></clipPath><clipPath id="48f88ef848"><path d="M 6.839844 0.125 L 66.160156 0.125 C 69.871094 0.125 72.878906 3.132812 72.878906 6.839844 L 72.878906 66.160156 C 72.878906 69.871094 69.871094 72.878906 66.160156 72.878906 L 6.839844 72.878906 C 3.132812 72.878906 0.125 69.871094 0.125 66.160156 L 0.125 6.839844 C 0.125 3.132812 3.132812 0.125 6.839844 0.125 Z M 6.839844 0.125 " clip-rule="nonzero"/></clipPath><clipPath id="c41e79617e"><rect x="0" width="73" y="0" height="73"/></clipPath><clipPath id="71b6592506"><rect x="0" width="53" y="0" height="95"/></clipPath></defs><g clip-path="url(#dd664b7bd7)"><g clip-path="url(#d759b55f3c)"><path fill="url(#0f33f1ad2f)" d="M 6.0625 6.0625 L 6.0625 90.941406 L 90.941406 90.941406 L 90.941406 6.0625 Z M 6.0625 6.0625 " fill-rule="nonzero"/></g></g><path fill="#f8fafc" d="M 31.828125 63.65625 L 31.828125 33.34375 L 47.289062 33.34375 C 53.046875 33.34375 56.835938 36.679688 56.835938 41.832031 C 56.835938 45.320312 55.171875 47.894531 52.289062 49.257812 L 59.261719 63.65625 L 50.015625 63.65625 L 43.953125 50.773438 L 38.648438 50.773438 L 38.648438 63.65625 Z M 43.195312 44.410156 L 47.742188 44.410156 C 50.015625 44.410156 51.382812 43.195312 51.382812 41.226562 C 51.382812 39.253906 50.015625 38.042969 47.742188 38.042969 L 43.195312 38.042969 Z M 65.171875 63.65625 L 65.171875 33.34375 L 73.660156 33.34375 L 73.660156 63.65625 Z M 65.171875 63.65625 " fill-opacity="1" fill-rule="nonzero"/><g clip-path="url(#9e0409304a)"><g clip-path="url(#7ec9443597)"><g transform="matrix(1, 0, 0, 1, 12, 12)"><g clip-path="url(#c41e79617e)"><g clip-path="url(#d1332e3fa8)"><g clip-path="url(#48f88ef848)"><path fill="#2563eb" d="M 0.125 0.125 L 72.878906 0.125 L 72.878906 72.878906 L 0.125 72.878906 Z M 0.125 0.125 " fill-opacity="1" fill-rule="nonzero"/></g></g></g></g></g></g><g transform="matrix(1, 0, 0, 1, 21, 1)"><g clip-path="url(#71b6592506)"><g fill="#f0efec" fill-opacity="1"><g transform="translate(0.612528, 70.379173)"><g><path d="M 35.140625 -31.9375 C 34.296875 -33.488281 33.082031 -34.675781 31.5 -35.5 C 29.925781 -36.320312 28.078125 -36.734375 25.953125 -36.734375 C 22.273438 -36.734375 19.328125 -35.523438 17.109375 -33.109375 C 14.890625 -30.691406 13.78125 -27.460938 13.78125 -23.421875 C 13.78125 -19.117188 14.941406 -15.757812 17.265625 -13.34375 C 19.597656 -10.925781 22.804688 -9.71875 26.890625 -9.71875 C 29.679688 -9.71875 32.039062 -10.425781 33.96875 -11.84375 C 35.894531 -13.257812 37.304688 -15.300781 38.203125 -17.96875 L 23.75 -17.96875 L 23.75 -26.359375 L 48.515625 -26.359375 L 48.515625 -15.765625 C 47.671875 -12.929688 46.238281 -10.289062 44.21875 -7.84375 C 42.195312 -5.40625 39.632812 -3.429688 36.53125 -1.921875 C 33.425781 -0.421875 29.921875 0.328125 26.015625 0.328125 C 21.398438 0.328125 17.285156 -0.675781 13.671875 -2.6875 C 10.054688 -4.707031 7.238281 -7.515625 5.21875 -11.109375 C 3.207031 -14.703125 2.203125 -18.804688 2.203125 -23.421875 C 2.203125 -28.035156 3.207031 -32.148438 5.21875 -35.765625 C 7.238281 -39.378906 10.046875 -42.195312 13.640625 -44.21875 C 17.234375 -46.238281 21.335938 -47.25 25.953125 -47.25 C 31.546875 -47.25 36.257812 -45.894531 40.09375 -43.1875 C 43.925781 -40.476562 46.46875 -36.726562 47.71875 -31.9375 Z M 35.140625 -31.9375 "/></g></g></g></g></g></svg>