<svg xmlns="http://www.w3.org/2000/svg" xmlns:xlink="http://www.w3.org/1999/xlink" width="450" zoomAndPan="magnify" viewBox="0 0 337.5 82.499998" height="110" preserveAspectRatio="xMidYMid meet" version="1.0"><defs><g/><clipPath id="dee7106e34"><path d="M 0.769531 0 L 336.234375 0 L 336.234375 82.003906 L 0.769531 82.003906 Z M 0.769531 0 " clip-rule="nonzero"/></clipPath><clipPath id="ee664ed6b8"><path d="M 17 19 L 81 19 L 81 63 L 17 63 Z M 17 19 " clip-rule="nonzero"/></clipPath><clipPath id="bd49dddda2"><path d="M 27.980469 19.390625 L 69.914062 19.390625 C 70.628906 19.390625 71.34375 19.460938 72.046875 19.601562 C 72.75 19.738281 73.433594 19.945312 74.097656 20.21875 C 74.761719 20.492188 75.390625 20.828125 75.988281 21.226562 C 76.585938 21.621094 77.140625 22.074219 77.648438 22.578125 C 78.15625 23.082031 78.609375 23.632812 79.007812 24.226562 C 79.40625 24.820312 79.742188 25.449219 80.019531 26.109375 C 80.292969 26.769531 80.5 27.449219 80.640625 28.152344 C 80.78125 28.851562 80.851562 29.558594 80.851562 30.273438 L 80.851562 52.042969 C 80.851562 52.757812 80.78125 53.464844 80.640625 54.164062 C 80.5 54.867188 80.292969 55.546875 80.019531 56.207031 C 79.742188 56.867188 79.40625 57.496094 79.007812 58.089844 C 78.609375 58.683594 78.15625 59.234375 77.648438 59.738281 C 77.140625 60.242188 76.585938 60.695312 75.988281 61.089844 C 75.390625 61.488281 74.761719 61.824219 74.097656 62.097656 C 73.433594 62.371094 72.75 62.578125 72.046875 62.714844 C 71.34375 62.855469 70.628906 62.925781 69.914062 62.925781 L 27.980469 62.925781 C 27.265625 62.925781 26.554688 62.855469 25.847656 62.714844 C 25.144531 62.578125 24.460938 62.371094 23.796875 62.097656 C 23.132812 61.824219 22.503906 61.488281 21.90625 61.089844 C 21.308594 60.695312 20.753906 60.242188 20.246094 59.738281 C 19.738281 59.234375 19.285156 58.683594 18.886719 58.089844 C 18.488281 57.496094 18.152344 56.867188 17.875 56.207031 C 17.601562 55.546875 17.394531 54.867188 17.253906 54.164062 C 17.113281 53.464844 17.042969 52.757812 17.042969 52.042969 L 17.042969 30.273438 C 17.042969 29.558594 17.113281 28.851562 17.253906 28.152344 C 17.394531 27.449219 17.601562 26.769531 17.875 26.109375 C 18.152344 25.449219 18.488281 24.820312 18.886719 24.226562 C 19.285156 23.632812 19.738281 23.082031 20.246094 22.578125 C 20.753906 22.074219 21.308594 21.621094 21.90625 21.226562 C 22.503906 20.828125 23.132812 20.492188 23.796875 20.21875 C 24.460938 19.945312 25.144531 19.738281 25.847656 19.601562 C 26.554688 19.460938 27.265625 19.390625 27.980469 19.390625 Z M 27.980469 19.390625 " clip-rule="nonzero"/></clipPath><linearGradient x1="0.0000000347545" gradientTransform="matrix(63.806468, 0, 0, 43.535297, 17.044127, 19.390599)" y1="0.0000000347545" x2="1" gradientUnits="userSpaceOnUse" y2="1" id="c6bae4a6bd"><stop stop-opacity="1" stop-color="rgb(14.509583%, 38.819885%, 92.158508%)" offset="0"/><stop stop-opacity="1" stop-color="rgb(14.498901%, 38.755798%, 92.010498%)" offset="0.0078125"/><stop stop-opacity="1" stop-color="rgb(14.477539%, 38.630676%, 91.712952%)" offset="0.015625"/><stop stop-opacity="1" stop-color="rgb(14.456177%, 38.505554%, 91.415405%)" offset="0.0234375"/><stop stop-opacity="1" stop-color="rgb(14.433289%, 38.378906%, 91.117859%)" offset="0.03125"/><stop stop-opacity="1" stop-color="rgb(14.411926%, 38.253784%, 90.821838%)" offset="0.0390625"/><stop stop-opacity="1" stop-color="rgb(14.390564%, 38.128662%, 90.524292%)" offset="0.046875"/><stop stop-opacity="1" stop-color="rgb(14.369202%, 38.00354%, 90.226746%)" offset="0.0546875"/><stop stop-opacity="1" stop-color="rgb(14.347839%, 37.876892%, 89.929199%)" offset="0.0625"/><stop stop-opacity="1" stop-color="rgb(14.326477%, 37.75177%, 89.633179%)" offset="0.0703125"/><stop stop-opacity="1" stop-color="rgb(14.305115%, 37.626648%, 89.335632%)" offset="0.078125"/><stop stop-opacity="1" stop-color="rgb(14.283752%, 37.501526%, 89.038086%)" offset="0.0859375"/><stop stop-opacity="1" stop-color="rgb(14.26239%, 37.374878%, 88.74054%)" offset="0.09375"/><stop stop-opacity="1" stop-color="rgb(14.241028%, 37.249756%, 88.444519%)" offset="0.101562"/><stop stop-opacity="1" stop-color="rgb(14.219666%, 37.124634%, 88.146973%)" offset="0.109375"/><stop stop-opacity="1" stop-color="rgb(14.198303%, 36.997986%, 87.849426%)" offset="0.117187"/><stop stop-opacity="1" stop-color="rgb(14.175415%, 36.872864%, 87.55188%)" offset="0.125"/><stop stop-opacity="1" stop-color="rgb(14.154053%, 36.747742%, 87.254333%)" offset="0.132812"/><stop stop-opacity="1" stop-color="rgb(14.13269%, 36.62262%, 86.958313%)" offset="0.140625"/><stop stop-opacity="1" stop-color="rgb(14.111328%, 36.495972%, 86.660767%)" offset="0.148437"/><stop stop-opacity="1" stop-color="rgb(14.089966%, 36.37085%, 86.36322%)" offset="0.15625"/><stop stop-opacity="1" stop-color="rgb(14.068604%, 36.245728%, 86.065674%)" offset="0.164062"/><stop stop-opacity="1" stop-color="rgb(14.047241%, 36.11908%, 85.769653%)" offset="0.171875"/><stop stop-opacity="1" stop-color="rgb(14.025879%, 35.993958%, 85.472107%)" offset="0.179687"/><stop stop-opacity="1" stop-color="rgb(14.004517%, 35.868835%, 85.174561%)" offset="0.1875"/><stop stop-opacity="1" stop-color="rgb(13.983154%, 35.743713%, 84.877014%)" offset="0.195312"/><stop stop-opacity="1" stop-color="rgb(13.961792%, 35.617065%, 84.580994%)" offset="0.203125"/><stop stop-opacity="1" stop-color="rgb(13.94043%, 35.491943%, 84.283447%)" offset="0.210937"/><stop stop-opacity="1" stop-color="rgb(13.919067%, 35.366821%, 83.985901%)" offset="0.21875"/><stop stop-opacity="1" stop-color="rgb(13.896179%, 35.241699%, 83.688354%)" offset="0.226562"/><stop stop-opacity="1" stop-color="rgb(13.874817%, 35.115051%, 83.392334%)" offset="0.234375"/><stop stop-opacity="1" stop-color="rgb(13.853455%, 34.989929%, 83.094788%)" offset="0.242187"/><stop stop-opacity="1" stop-color="rgb(13.832092%, 34.864807%, 82.797241%)" offset="0.25"/><stop stop-opacity="1" stop-color="rgb(13.81073%, 34.738159%, 82.499695%)" offset="0.257812"/><stop stop-opacity="1" stop-color="rgb(13.789368%, 34.613037%, 82.202148%)" offset="0.265625"/><stop stop-opacity="1" stop-color="rgb(13.768005%, 34.487915%, 81.906128%)" offset="0.273437"/><stop stop-opacity="1" stop-color="rgb(13.746643%, 34.362793%, 81.608582%)" offset="0.28125"/><stop stop-opacity="1" stop-color="rgb(13.725281%, 34.236145%, 81.311035%)" offset="0.289062"/><stop stop-opacity="1" stop-color="rgb(13.703918%, 34.111023%, 81.013489%)" offset="0.296875"/><stop stop-opacity="1" stop-color="rgb(13.682556%, 33.985901%, 80.717468%)" offset="0.304687"/><stop stop-opacity="1" stop-color="rgb(13.661194%, 33.859253%, 80.419922%)" offset="0.3125"/><stop stop-opacity="1" stop-color="rgb(13.638306%, 33.734131%, 80.122375%)" offset="0.320312"/><stop stop-opacity="1" stop-color="rgb(13.616943%, 33.609009%, 79.824829%)" offset="0.328125"/><stop stop-opacity="1" stop-color="rgb(13.595581%, 33.483887%, 79.528809%)" offset="0.335937"/><stop stop-opacity="1" stop-color="rgb(13.574219%, 33.357239%, 79.231262%)" offset="0.34375"/><stop stop-opacity="1" stop-color="rgb(13.552856%, 33.232117%, 78.933716%)" offset="0.351562"/><stop stop-opacity="1" stop-color="rgb(13.531494%, 33.106995%, 78.636169%)" offset="0.359375"/><stop stop-opacity="1" stop-color="rgb(13.510132%, 32.980347%, 78.340149%)" offset="0.367187"/><stop stop-opacity="1" stop-color="rgb(13.48877%, 32.855225%, 78.042603%)" offset="0.375"/><stop stop-opacity="1" stop-color="rgb(13.467407%, 32.730103%, 77.745056%)" offset="0.382812"/><stop stop-opacity="1" stop-color="rgb(13.446045%, 32.60498%, 77.44751%)" offset="0.390625"/><stop stop-opacity="1" stop-color="rgb(13.424683%, 32.478333%, 77.149963%)" offset="0.398437"/><stop stop-opacity="1" stop-color="rgb(13.40332%, 32.35321%, 76.853943%)" offset="0.40625"/><stop stop-opacity="1" stop-color="rgb(13.381958%, 32.228088%, 76.556396%)" offset="0.414062"/><stop stop-opacity="1" stop-color="rgb(13.35907%, 32.102966%, 76.25885%)" offset="0.421875"/><stop stop-opacity="1" stop-color="rgb(13.337708%, 31.976318%, 75.961304%)" offset="0.429687"/><stop stop-opacity="1" stop-color="rgb(13.316345%, 31.851196%, 75.665283%)" offset="0.4375"/><stop stop-opacity="1" stop-color="rgb(13.294983%, 31.726074%, 75.367737%)" offset="0.445312"/><stop stop-opacity="1" stop-color="rgb(13.273621%, 31.599426%, 75.07019%)" offset="0.453125"/><stop stop-opacity="1" stop-color="rgb(13.252258%, 31.474304%, 74.772644%)" offset="0.460937"/><stop stop-opacity="1" stop-color="rgb(13.230896%, 31.349182%, 74.476624%)" offset="0.46875"/><stop stop-opacity="1" stop-color="rgb(13.209534%, 31.22406%, 74.179077%)" offset="0.476562"/><stop stop-opacity="1" stop-color="rgb(13.188171%, 31.097412%, 73.881531%)" offset="0.484375"/><stop stop-opacity="1" stop-color="rgb(13.166809%, 30.97229%, 73.583984%)" offset="0.492187"/><stop stop-opacity="1" stop-color="rgb(13.145447%, 30.847168%, 73.287964%)" offset="0.5"/><stop stop-opacity="1" stop-color="rgb(13.134766%, 30.784607%, 73.139954%)" offset="0.5"/><stop stop-opacity="1" stop-color="rgb(13.124084%, 30.72052%, 72.990417%)" offset="0.5"/><stop stop-opacity="1" stop-color="rgb(13.113403%, 30.657959%, 72.842407%)" offset="0.507813"/><stop stop-opacity="1" stop-color="rgb(13.101196%, 30.595398%, 72.692871%)" offset="0.515625"/><stop stop-opacity="1" stop-color="rgb(13.079834%, 30.470276%, 72.395325%)" offset="0.523437"/><stop stop-opacity="1" stop-color="rgb(13.058472%, 30.345154%, 72.097778%)" offset="0.53125"/><stop stop-opacity="1" stop-color="rgb(13.037109%, 30.218506%, 71.801758%)" offset="0.539063"/><stop stop-opacity="1" stop-color="rgb(13.015747%, 30.093384%, 71.504211%)" offset="0.546875"/><stop stop-opacity="1" stop-color="rgb(12.994385%, 29.968262%, 71.206665%)" offset="0.554687"/><stop stop-opacity="1" stop-color="rgb(12.973022%, 29.84314%, 70.909119%)" offset="0.5625"/><stop stop-opacity="1" stop-color="rgb(12.95166%, 29.716492%, 70.613098%)" offset="0.570313"/><stop stop-opacity="1" stop-color="rgb(12.930298%, 29.59137%, 70.315552%)" offset="0.578125"/><stop stop-opacity="1" stop-color="rgb(12.908936%, 29.466248%, 70.018005%)" offset="0.585937"/><stop stop-opacity="1" stop-color="rgb(12.887573%, 29.3396%, 69.720459%)" offset="0.59375"/><stop stop-opacity="1" stop-color="rgb(12.866211%, 29.214478%, 69.424438%)" offset="0.601563"/><stop stop-opacity="1" stop-color="rgb(12.844849%, 29.089355%, 69.126892%)" offset="0.609375"/><stop stop-opacity="1" stop-color="rgb(12.82196%, 28.964233%, 68.829346%)" offset="0.617187"/><stop stop-opacity="1" stop-color="rgb(12.800598%, 28.837585%, 68.531799%)" offset="0.625"/><stop stop-opacity="1" stop-color="rgb(12.779236%, 28.712463%, 68.235779%)" offset="0.632813"/><stop stop-opacity="1" stop-color="rgb(12.757874%, 28.587341%, 67.938232%)" offset="0.640625"/><stop stop-opacity="1" stop-color="rgb(12.736511%, 28.460693%, 67.640686%)" offset="0.648437"/><stop stop-opacity="1" stop-color="rgb(12.715149%, 28.335571%, 67.34314%)" offset="0.65625"/><stop stop-opacity="1" stop-color="rgb(12.693787%, 28.210449%, 67.045593%)" offset="0.664063"/><stop stop-opacity="1" stop-color="rgb(12.672424%, 28.085327%, 66.749573%)" offset="0.671875"/><stop stop-opacity="1" stop-color="rgb(12.651062%, 27.958679%, 66.452026%)" offset="0.679687"/><stop stop-opacity="1" stop-color="rgb(12.6297%, 27.833557%, 66.15448%)" offset="0.6875"/><stop stop-opacity="1" stop-color="rgb(12.608337%, 27.708435%, 65.856934%)" offset="0.695313"/><stop stop-opacity="1" stop-color="rgb(12.586975%, 27.583313%, 65.560913%)" offset="0.703125"/><stop stop-opacity="1" stop-color="rgb(12.564087%, 27.456665%, 65.263367%)" offset="0.710937"/><stop stop-opacity="1" stop-color="rgb(12.542725%, 27.331543%, 64.96582%)" offset="0.71875"/><stop stop-opacity="1" stop-color="rgb(12.521362%, 27.206421%, 64.668274%)" offset="0.726563"/><stop stop-opacity="1" stop-color="rgb(12.5%, 27.079773%, 64.372253%)" offset="0.734375"/><stop stop-opacity="1" stop-color="rgb(12.478638%, 26.954651%, 64.074707%)" offset="0.742187"/><stop stop-opacity="1" stop-color="rgb(12.457275%, 26.829529%, 63.777161%)" offset="0.75"/><stop stop-opacity="1" stop-color="rgb(12.435913%, 26.704407%, 63.479614%)" offset="0.757813"/><stop stop-opacity="1" stop-color="rgb(12.414551%, 26.577759%, 63.183594%)" offset="0.765625"/><stop stop-opacity="1" stop-color="rgb(12.393188%, 26.452637%, 62.886047%)" offset="0.773437"/><stop stop-opacity="1" stop-color="rgb(12.371826%, 26.327515%, 62.588501%)" offset="0.78125"/><stop stop-opacity="1" stop-color="rgb(12.350464%, 26.200867%, 62.290955%)" offset="0.789063"/><stop stop-opacity="1" stop-color="rgb(12.329102%, 26.075745%, 61.993408%)" offset="0.796875"/><stop stop-opacity="1" stop-color="rgb(12.307739%, 25.950623%, 61.697388%)" offset="0.804687"/><stop stop-opacity="1" stop-color="rgb(12.284851%, 25.8255%, 61.399841%)" offset="0.8125"/><stop stop-opacity="1" stop-color="rgb(12.263489%, 25.698853%, 61.102295%)" offset="0.820313"/><stop stop-opacity="1" stop-color="rgb(12.242126%, 25.57373%, 60.804749%)" offset="0.828125"/><stop stop-opacity="1" stop-color="rgb(12.220764%, 25.448608%, 60.508728%)" offset="0.835937"/><stop stop-opacity="1" stop-color="rgb(12.199402%, 25.323486%, 60.211182%)" offset="0.84375"/><stop stop-opacity="1" stop-color="rgb(12.17804%, 25.196838%, 59.913635%)" offset="0.851563"/><stop stop-opacity="1" stop-color="rgb(12.156677%, 25.071716%, 59.616089%)" offset="0.859375"/><stop stop-opacity="1" stop-color="rgb(12.135315%, 24.946594%, 59.320068%)" offset="0.867187"/><stop stop-opacity="1" stop-color="rgb(12.113953%, 24.819946%, 59.022522%)" offset="0.875"/><stop stop-opacity="1" stop-color="rgb(12.09259%, 24.694824%, 58.724976%)" offset="0.882813"/><stop stop-opacity="1" stop-color="rgb(12.071228%, 24.569702%, 58.427429%)" offset="0.890625"/><stop stop-opacity="1" stop-color="rgb(12.049866%, 24.44458%, 58.131409%)" offset="0.898437"/><stop stop-opacity="1" stop-color="rgb(12.026978%, 24.317932%, 57.833862%)" offset="0.90625"/><stop stop-opacity="1" stop-color="rgb(12.005615%, 24.19281%, 57.536316%)" offset="0.914063"/><stop stop-opacity="1" stop-color="rgb(11.984253%, 24.067688%, 57.23877%)" offset="0.921875"/><stop stop-opacity="1" stop-color="rgb(11.962891%, 23.94104%, 56.941223%)" offset="0.929687"/><stop stop-opacity="1" stop-color="rgb(11.941528%, 23.815918%, 56.645203%)" offset="0.9375"/><stop stop-opacity="1" stop-color="rgb(11.920166%, 23.690796%, 56.347656%)" offset="0.945313"/><stop stop-opacity="1" stop-color="rgb(11.898804%, 23.565674%, 56.05011%)" offset="0.953125"/><stop stop-opacity="1" stop-color="rgb(11.877441%, 23.439026%, 55.752563%)" offset="0.960937"/><stop stop-opacity="1" stop-color="rgb(11.856079%, 23.313904%, 55.456543%)" offset="0.96875"/><stop stop-opacity="1" stop-color="rgb(11.834717%, 23.188782%, 55.158997%)" offset="0.976563"/><stop stop-opacity="1" stop-color="rgb(11.813354%, 23.062134%, 54.86145%)" offset="0.984375"/><stop stop-opacity="1" stop-color="rgb(11.791992%, 22.937012%, 54.563904%)" offset="0.992187"/><stop stop-opacity="1" stop-color="rgb(11.77063%, 22.81189%, 54.267883%)" offset="1"/></linearGradient></defs><g clip-path="url(#dee7106e34)"><path fill="#ffffff" d="M 0.769531 0 L 336.234375 0 L 336.234375 82.003906 L 0.769531 82.003906 Z M 0.769531 0 " fill-opacity="1" fill-rule="nonzero"/><path fill="#ffffff" d="M 0.769531 0 L 336.234375 0 L 336.234375 82.003906 L 0.769531 82.003906 Z M 0.769531 0 " fill-opacity="1" fill-rule="nonzero"/></g><g clip-path="url(#ee664ed6b8)"><g clip-path="url(#bd49dddda2)"><path fill="url(#c6bae4a6bd)" d="M 17.042969 19.390625 L 17.042969 62.925781 L 80.851562 62.925781 L 80.851562 19.390625 Z M 17.042969 19.390625 " fill-rule="nonzero"/></g></g><path fill="#f8fafc" d="M 39.375 51.589844 C 33.085938 51.589844 28.4375 47.054688 28.4375 40.976562 C 28.4375 34.898438 33.179688 30.363281 39.558594 30.363281 C 43.660156 30.363281 47.214844 32.179688 48.949219 35.171875 L 44.117188 37.621094 C 43.296875 36.167969 41.65625 35.261719 39.648438 35.261719 C 36.460938 35.261719 34.179688 37.441406 34.179688 40.976562 C 34.179688 44.332031 36.367188 46.601562 39.46875 46.601562 C 42.019531 46.601562 43.84375 45.421875 44.296875 43.699219 L 39.285156 43.699219 L 39.285156 39.34375 L 49.675781 39.34375 L 49.675781 40.796875 C 49.675781 46.964844 45.210938 51.589844 39.375 51.589844 Z M 39.375 51.589844 " fill-opacity="1" fill-rule="nonzero"/><g fill="#2563eb" fill-opacity="1"><g transform="translate(84.891396, 50.627355)"><g><path d="M 22.796875 -20.71875 C 22.242188 -21.726562 21.457031 -22.5 20.4375 -23.03125 C 19.414062 -23.5625 18.21875 -23.828125 16.84375 -23.828125 C 14.445312 -23.828125 12.53125 -23.039062 11.09375 -21.46875 C 9.65625 -19.90625 8.9375 -17.816406 8.9375 -15.203125 C 8.9375 -12.410156 9.691406 -10.226562 11.203125 -8.65625 C 12.710938 -7.082031 14.789062 -6.296875 17.4375 -6.296875 C 19.25 -6.296875 20.78125 -6.753906 22.03125 -7.671875 C 23.289062 -8.597656 24.207031 -9.925781 24.78125 -11.65625 L 15.40625 -11.65625 L 15.40625 -17.09375 L 31.46875 -17.09375 L 31.46875 -10.234375 C 30.925781 -8.390625 30 -6.675781 28.6875 -5.09375 C 27.375 -3.507812 25.707031 -2.226562 23.6875 -1.25 C 21.675781 -0.269531 19.40625 0.21875 16.875 0.21875 C 13.882812 0.21875 11.21875 -0.4375 8.875 -1.75 C 6.53125 -3.0625 4.703125 -4.878906 3.390625 -7.203125 C 2.078125 -9.535156 1.421875 -12.203125 1.421875 -15.203125 C 1.421875 -18.191406 2.078125 -20.859375 3.390625 -23.203125 C 4.703125 -25.546875 6.519531 -27.375 8.84375 -28.6875 C 11.175781 -30 13.84375 -30.65625 16.84375 -30.65625 C 20.46875 -30.65625 23.523438 -29.773438 26.015625 -28.015625 C 28.503906 -26.265625 30.148438 -23.832031 30.953125 -20.71875 Z M 22.796875 -20.71875 "/></g></g></g><g fill="#2563eb" fill-opacity="1"><g transform="translate(117.785397, 50.627355)"><g><path d="M 21.546875 -5.359375 L 10.234375 -5.359375 L 8.421875 0 L 0.6875 0 L 11.65625 -30.3125 L 20.203125 -30.3125 L 31.171875 0 L 23.359375 0 Z M 19.640625 -11.046875 L 15.890625 -22.140625 L 12.171875 -11.046875 Z M 19.640625 -11.046875 "/></g></g></g><g fill="#2563eb" fill-opacity="1"><g transform="translate(149.600203, 50.627355)"><g><path d="M 1.421875 -15.203125 C 1.421875 -18.191406 2.066406 -20.859375 3.359375 -23.203125 C 4.660156 -25.546875 6.46875 -27.375 8.78125 -28.6875 C 11.101562 -30 13.734375 -30.65625 16.671875 -30.65625 C 20.265625 -30.65625 23.34375 -29.703125 25.90625 -27.796875 C 28.46875 -25.898438 30.179688 -23.3125 31.046875 -20.03125 L 22.921875 -20.03125 C 22.316406 -21.300781 21.457031 -22.265625 20.34375 -22.921875 C 19.238281 -23.585938 17.984375 -23.921875 16.578125 -23.921875 C 14.304688 -23.921875 12.460938 -23.128906 11.046875 -21.546875 C 9.640625 -19.960938 8.9375 -17.847656 8.9375 -15.203125 C 8.9375 -12.546875 9.640625 -10.425781 11.046875 -8.84375 C 12.460938 -7.257812 14.304688 -6.46875 16.578125 -6.46875 C 17.984375 -6.46875 19.238281 -6.800781 20.34375 -7.46875 C 21.457031 -8.132812 22.316406 -9.097656 22.921875 -10.359375 L 31.046875 -10.359375 C 30.179688 -7.078125 28.46875 -4.492188 25.90625 -2.609375 C 23.34375 -0.722656 20.265625 0.21875 16.671875 0.21875 C 13.734375 0.21875 11.101562 -0.4375 8.78125 -1.75 C 6.46875 -3.0625 4.660156 -4.878906 3.359375 -7.203125 C 2.066406 -9.535156 1.421875 -12.203125 1.421875 -15.203125 Z M 1.421875 -15.203125 "/></g></g></g><g fill="#2563eb" fill-opacity="1"><g transform="translate(182.494204, 50.627355)"><g/></g></g><g fill="#2563eb" fill-opacity="1"><g transform="translate(191.64582, 50.627355)"><g><path d="M 10.0625 -5.703125 L 19.734375 -5.703125 L 19.734375 0 L 2.671875 0 L 2.671875 -30.3125 L 10.0625 -30.3125 Z M 10.0625 -5.703125 "/></g></g></g><g fill="#2563eb" fill-opacity="1"><g transform="translate(212.236947, 50.627355)"><g><path d="M 10.0625 -24.390625 L 10.0625 -18.265625 L 19.953125 -18.265625 L 19.953125 -12.5625 L 10.0625 -12.5625 L 10.0625 -5.921875 L 21.234375 -5.921875 L 21.234375 0 L 2.671875 0 L 2.671875 -30.3125 L 21.234375 -30.3125 L 21.234375 -24.390625 Z M 10.0625 -24.390625 "/></g></g></g><g fill="#2563eb" fill-opacity="1"><g transform="translate(235.590825, 50.627355)"><g><path d="M 21.546875 -5.359375 L 10.234375 -5.359375 L 8.421875 0 L 0.6875 0 L 11.65625 -30.3125 L 20.203125 -30.3125 L 31.171875 0 L 23.359375 0 Z M 19.640625 -11.046875 L 15.890625 -22.140625 L 12.171875 -11.046875 Z M 19.640625 -11.046875 "/></g></g></g><g fill="#2563eb" fill-opacity="1"><g transform="translate(267.405632, 50.627355)"><g><path d="M 14.03125 -30.3125 C 17.226562 -30.3125 20.019531 -29.675781 22.40625 -28.40625 C 24.789062 -27.132812 26.640625 -25.351562 27.953125 -23.0625 C 29.265625 -20.78125 29.921875 -18.144531 29.921875 -15.15625 C 29.921875 -12.1875 29.265625 -9.550781 27.953125 -7.25 C 26.640625 -4.945312 24.78125 -3.160156 22.375 -1.890625 C 19.976562 -0.628906 17.195312 0 14.03125 0 L 2.671875 0 L 2.671875 -30.3125 Z M 13.5625 -6.390625 C 16.351562 -6.390625 18.523438 -7.148438 20.078125 -8.671875 C 21.628906 -10.203125 22.40625 -12.363281 22.40625 -15.15625 C 22.40625 -17.945312 21.628906 -20.117188 20.078125 -21.671875 C 18.523438 -23.222656 16.351562 -24 13.5625 -24 L 10.0625 -24 L 10.0625 -6.390625 Z M 13.5625 -6.390625 "/></g></g></g><g fill="#2563eb" fill-opacity="1"><g transform="translate(298.788774, 50.627355)"><g><path d="M 13.640625 0.296875 C 11.421875 0.296875 9.429688 -0.0625 7.671875 -0.78125 C 5.921875 -1.5 4.519531 -2.5625 3.46875 -3.96875 C 2.425781 -5.382812 1.875 -7.082031 1.8125 -9.0625 L 9.671875 -9.0625 C 9.785156 -7.9375 10.171875 -7.078125 10.828125 -6.484375 C 11.492188 -5.898438 12.359375 -5.609375 13.421875 -5.609375 C 14.515625 -5.609375 15.378906 -5.859375 16.015625 -6.359375 C 16.648438 -6.867188 16.96875 -7.570312 16.96875 -8.46875 C 16.96875 -9.207031 16.710938 -9.820312 16.203125 -10.3125 C 15.703125 -10.800781 15.082031 -11.203125 14.34375 -11.515625 C 13.613281 -11.835938 12.570312 -12.203125 11.21875 -12.609375 C 9.257812 -13.210938 7.660156 -13.816406 6.421875 -14.421875 C 5.191406 -15.023438 4.128906 -15.914062 3.234375 -17.09375 C 2.347656 -18.269531 1.90625 -19.8125 1.90625 -21.71875 C 1.90625 -24.539062 2.925781 -26.75 4.96875 -28.34375 C 7.007812 -29.9375 9.671875 -30.734375 12.953125 -30.734375 C 16.285156 -30.734375 18.972656 -29.9375 21.015625 -28.34375 C 23.066406 -26.75 24.164062 -24.523438 24.3125 -21.671875 L 16.3125 -21.671875 C 16.257812 -22.648438 15.898438 -23.421875 15.234375 -23.984375 C 14.578125 -24.546875 13.726562 -24.828125 12.6875 -24.828125 C 11.800781 -24.828125 11.082031 -24.585938 10.53125 -24.109375 C 9.988281 -23.640625 9.71875 -22.957031 9.71875 -22.0625 C 9.71875 -21.082031 10.175781 -20.316406 11.09375 -19.765625 C 12.019531 -19.222656 13.457031 -18.632812 15.40625 -18 C 17.363281 -17.34375 18.953125 -16.710938 20.171875 -16.109375 C 21.398438 -15.503906 22.457031 -14.625 23.34375 -13.46875 C 24.238281 -12.320312 24.6875 -10.835938 24.6875 -9.015625 C 24.6875 -7.296875 24.25 -5.726562 23.375 -4.3125 C 22.5 -2.90625 21.222656 -1.785156 19.546875 -0.953125 C 17.878906 -0.117188 15.910156 0.296875 13.640625 0.296875 Z M 13.640625 0.296875 "/></g></g></g><g fill="#2563eb" fill-opacity="1"><g transform="translate(152.419854, 68.348691)"><g><path d="M 6.125 -5.171875 C 6.488281 -5.109375 6.820312 -4.957031 7.125 -4.71875 C 7.425781 -4.476562 7.664062 -4.179688 7.84375 -3.828125 C 8.019531 -3.472656 8.109375 -3.09375 8.109375 -2.6875 C 8.109375 -2.175781 7.976562 -1.71875 7.71875 -1.3125 C 7.46875 -0.90625 7.09375 -0.582031 6.59375 -0.34375 C 6.101562 -0.113281 5.519531 0 4.84375 0 L 1.109375 0 L 1.109375 -10.03125 L 4.703125 -10.03125 C 5.390625 -10.03125 5.972656 -9.914062 6.453125 -9.6875 C 6.929688 -9.46875 7.289062 -9.164062 7.53125 -8.78125 C 7.769531 -8.394531 7.890625 -7.960938 7.890625 -7.484375 C 7.890625 -6.890625 7.726562 -6.394531 7.40625 -6 C 7.082031 -5.613281 6.65625 -5.335938 6.125 -5.171875 Z M 2.421875 -5.703125 L 4.625 -5.703125 C 5.238281 -5.703125 5.710938 -5.84375 6.046875 -6.125 C 6.378906 -6.414062 6.546875 -6.816406 6.546875 -7.328125 C 6.546875 -7.835938 6.378906 -8.234375 6.046875 -8.515625 C 5.710938 -8.804688 5.226562 -8.953125 4.59375 -8.953125 L 2.421875 -8.953125 Z M 4.734375 -1.078125 C 5.390625 -1.078125 5.898438 -1.226562 6.265625 -1.53125 C 6.628906 -1.84375 6.8125 -2.273438 6.8125 -2.828125 C 6.8125 -3.378906 6.617188 -3.816406 6.234375 -4.140625 C 5.847656 -4.460938 5.332031 -4.625 4.6875 -4.625 L 2.421875 -4.625 L 2.421875 -1.078125 Z M 4.734375 -1.078125 "/></g></g></g><g fill="#2563eb" fill-opacity="1"><g transform="translate(161.238156, 68.348691)"><g><path d="M 0.734375 -1.046875 C 1.953125 -2.023438 2.90625 -2.828125 3.59375 -3.453125 C 4.289062 -4.085938 4.875 -4.75 5.34375 -5.4375 C 5.820312 -6.125 6.0625 -6.796875 6.0625 -7.453125 C 6.0625 -8.078125 5.910156 -8.566406 5.609375 -8.921875 C 5.304688 -9.285156 4.816406 -9.46875 4.140625 -9.46875 C 3.492188 -9.46875 2.988281 -9.265625 2.625 -8.859375 C 2.269531 -8.453125 2.078125 -7.90625 2.046875 -7.21875 L 0.78125 -7.21875 C 0.8125 -8.289062 1.132812 -9.117188 1.75 -9.703125 C 2.363281 -10.296875 3.15625 -10.59375 4.125 -10.59375 C 5.113281 -10.59375 5.898438 -10.316406 6.484375 -9.765625 C 7.066406 -9.222656 7.359375 -8.472656 7.359375 -7.515625 C 7.359375 -6.710938 7.117188 -5.9375 6.640625 -5.1875 C 6.160156 -4.4375 5.617188 -3.773438 5.015625 -3.203125 C 4.410156 -2.628906 3.640625 -1.960938 2.703125 -1.203125 L 7.65625 -1.203125 L 7.65625 -0.109375 L 0.734375 -0.109375 Z M 0.734375 -1.046875 "/></g></g></g><g fill="#2563eb" fill-opacity="1"><g transform="translate(169.509801, 68.348691)"><g><path d="M 6.125 -5.171875 C 6.488281 -5.109375 6.820312 -4.957031 7.125 -4.71875 C 7.425781 -4.476562 7.664062 -4.179688 7.84375 -3.828125 C 8.019531 -3.472656 8.109375 -3.09375 8.109375 -2.6875 C 8.109375 -2.175781 7.976562 -1.71875 7.71875 -1.3125 C 7.46875 -0.90625 7.09375 -0.582031 6.59375 -0.34375 C 6.101562 -0.113281 5.519531 0 4.84375 0 L 1.109375 0 L 1.109375 -10.03125 L 4.703125 -10.03125 C 5.390625 -10.03125 5.972656 -9.914062 6.453125 -9.6875 C 6.929688 -9.46875 7.289062 -9.164062 7.53125 -8.78125 C 7.769531 -8.394531 7.890625 -7.960938 7.890625 -7.484375 C 7.890625 -6.890625 7.726562 -6.394531 7.40625 -6 C 7.082031 -5.613281 6.65625 -5.335938 6.125 -5.171875 Z M 2.421875 -5.703125 L 4.625 -5.703125 C 5.238281 -5.703125 5.710938 -5.84375 6.046875 -6.125 C 6.378906 -6.414062 6.546875 -6.816406 6.546875 -7.328125 C 6.546875 -7.835938 6.378906 -8.234375 6.046875 -8.515625 C 5.710938 -8.804688 5.226562 -8.953125 4.59375 -8.953125 L 2.421875 -8.953125 Z M 4.734375 -1.078125 C 5.390625 -1.078125 5.898438 -1.226562 6.265625 -1.53125 C 6.628906 -1.84375 6.8125 -2.273438 6.8125 -2.828125 C 6.8125 -3.378906 6.617188 -3.816406 6.234375 -4.140625 C 5.847656 -4.460938 5.332031 -4.625 4.6875 -4.625 L 2.421875 -4.625 L 2.421875 -1.078125 Z M 4.734375 -1.078125 "/></g></g></g><g fill="#2563eb" fill-opacity="1"><g transform="translate(178.328102, 68.348691)"><g/></g></g><g fill="#2563eb" fill-opacity="1"><g transform="translate(182.169024, 68.348691)"><g><path d="M 1.78125 -9.171875 C 1.53125 -9.171875 1.316406 -9.253906 1.140625 -9.421875 C 0.972656 -9.597656 0.890625 -9.8125 0.890625 -10.0625 C 0.890625 -10.3125 0.972656 -10.519531 1.140625 -10.6875 C 1.316406 -10.863281 1.53125 -10.953125 1.78125 -10.953125 C 2.019531 -10.953125 2.222656 -10.863281 2.390625 -10.6875 C 2.554688 -10.519531 2.640625 -10.3125 2.640625 -10.0625 C 2.640625 -9.8125 2.554688 -9.597656 2.390625 -9.421875 C 2.222656 -9.253906 2.019531 -9.171875 1.78125 -9.171875 Z M 2.421875 -7.890625 L 2.421875 0 L 1.109375 0 L 1.109375 -7.890625 Z M 2.421875 -7.890625 "/></g></g></g><g fill="#2563eb" fill-opacity="1"><g transform="translate(185.707856, 68.348691)"><g><path d="M 4.953125 -8.03125 C 5.910156 -8.03125 6.6875 -7.738281 7.28125 -7.15625 C 7.875 -6.570312 8.171875 -5.734375 8.171875 -4.640625 L 8.171875 0 L 6.875 0 L 6.875 -4.46875 C 6.875 -5.25 6.675781 -5.847656 6.28125 -6.265625 C 5.894531 -6.679688 5.359375 -6.890625 4.671875 -6.890625 C 3.984375 -6.890625 3.4375 -6.671875 3.03125 -6.234375 C 2.625 -5.804688 2.421875 -5.179688 2.421875 -4.359375 L 2.421875 0 L 1.109375 0 L 1.109375 -7.890625 L 2.421875 -7.890625 L 2.421875 -6.765625 C 2.679688 -7.171875 3.03125 -7.484375 3.46875 -7.703125 C 3.914062 -7.921875 4.410156 -8.03125 4.953125 -8.03125 Z M 4.953125 -8.03125 "/></g></g></g><g fill="#2563eb" fill-opacity="1"><g transform="translate(194.914562, 68.348691)"><g><path d="M 2.703125 -6.8125 L 2.703125 -2.15625 C 2.703125 -1.769531 2.78125 -1.5 2.9375 -1.34375 C 3.101562 -1.1875 3.390625 -1.109375 3.796875 -1.109375 L 4.765625 -1.109375 L 4.765625 0 L 3.578125 0 C 2.847656 0 2.300781 -0.164062 1.9375 -0.5 C 1.570312 -0.832031 1.390625 -1.382812 1.390625 -2.15625 L 1.390625 -6.8125 L 0.375 -6.8125 L 0.375 -7.890625 L 1.390625 -7.890625 L 1.390625 -9.875 L 2.703125 -9.875 L 2.703125 -7.890625 L 4.765625 -7.890625 L 4.765625 -6.8125 Z M 2.703125 -6.8125 "/></g></g></g><g fill="#2563eb" fill-opacity="1"><g transform="translate(200.150874, 68.348691)"><g><path d="M 8.296875 -4.25 C 8.296875 -4 8.285156 -3.734375 8.265625 -3.453125 L 1.953125 -3.453125 C 2.003906 -2.671875 2.269531 -2.0625 2.75 -1.625 C 3.238281 -1.195312 3.828125 -0.984375 4.515625 -0.984375 C 5.085938 -0.984375 5.5625 -1.113281 5.9375 -1.375 C 6.3125 -1.632812 6.578125 -1.988281 6.734375 -2.4375 L 8.140625 -2.4375 C 7.929688 -1.675781 7.507812 -1.054688 6.875 -0.578125 C 6.238281 -0.109375 5.453125 0.125 4.515625 0.125 C 3.765625 0.125 3.09375 -0.0390625 2.5 -0.375 C 1.914062 -0.707031 1.457031 -1.179688 1.125 -1.796875 C 0.789062 -2.421875 0.625 -3.140625 0.625 -3.953125 C 0.625 -4.773438 0.785156 -5.488281 1.109375 -6.09375 C 1.429688 -6.707031 1.890625 -7.179688 2.484375 -7.515625 C 3.078125 -7.847656 3.753906 -8.015625 4.515625 -8.015625 C 5.265625 -8.015625 5.925781 -7.847656 6.5 -7.515625 C 7.082031 -7.191406 7.523438 -6.742188 7.828125 -6.171875 C 8.140625 -5.609375 8.296875 -4.96875 8.296875 -4.25 Z M 6.953125 -4.515625 C 6.953125 -5.015625 6.835938 -5.441406 6.609375 -5.796875 C 6.390625 -6.160156 6.09375 -6.4375 5.71875 -6.625 C 5.34375 -6.8125 4.925781 -6.90625 4.46875 -6.90625 C 3.800781 -6.90625 3.234375 -6.691406 2.765625 -6.265625 C 2.304688 -5.847656 2.039062 -5.265625 1.96875 -4.515625 Z M 6.953125 -4.515625 "/></g></g></g><g fill="#2563eb" fill-opacity="1"><g transform="translate(209.069868, 68.348691)"><g><path d="M 2.421875 -10.65625 L 2.421875 0 L 1.109375 0 L 1.109375 -10.65625 Z M 2.421875 -10.65625 "/></g></g></g><g fill="#2563eb" fill-opacity="1"><g transform="translate(212.6087, 68.348691)"><g><path d="M 2.421875 -10.65625 L 2.421875 0 L 1.109375 0 L 1.109375 -10.65625 Z M 2.421875 -10.65625 "/></g></g></g><g fill="#2563eb" fill-opacity="1"><g transform="translate(216.147532, 68.348691)"><g><path d="M 1.78125 -9.171875 C 1.53125 -9.171875 1.316406 -9.253906 1.140625 -9.421875 C 0.972656 -9.597656 0.890625 -9.8125 0.890625 -10.0625 C 0.890625 -10.3125 0.972656 -10.519531 1.140625 -10.6875 C 1.316406 -10.863281 1.53125 -10.953125 1.78125 -10.953125 C 2.019531 -10.953125 2.222656 -10.863281 2.390625 -10.6875 C 2.554688 -10.519531 2.640625 -10.3125 2.640625 -10.0625 C 2.640625 -9.8125 2.554688 -9.597656 2.390625 -9.421875 C 2.222656 -9.253906 2.019531 -9.171875 1.78125 -9.171875 Z M 2.421875 -7.890625 L 2.421875 0 L 1.109375 0 L 1.109375 -7.890625 Z M 2.421875 -7.890625 "/></g></g></g><g fill="#2563eb" fill-opacity="1"><g transform="translate(219.686364, 68.348691)"><g><path d="M 4.359375 -8.015625 C 5.035156 -8.015625 5.628906 -7.863281 6.140625 -7.5625 C 6.660156 -7.269531 7.046875 -6.898438 7.296875 -6.453125 L 7.296875 -7.890625 L 8.625 -7.890625 L 8.625 0.171875 C 8.625 0.890625 8.46875 1.53125 8.15625 2.09375 C 7.851562 2.65625 7.414062 3.09375 6.84375 3.40625 C 6.269531 3.726562 5.601562 3.890625 4.84375 3.890625 C 3.8125 3.890625 2.945312 3.644531 2.25 3.15625 C 1.5625 2.664062 1.15625 2 1.03125 1.15625 L 2.328125 1.15625 C 2.472656 1.632812 2.769531 2.019531 3.21875 2.3125 C 3.675781 2.601562 4.21875 2.75 4.84375 2.75 C 5.5625 2.75 6.148438 2.519531 6.609375 2.0625 C 7.066406 1.613281 7.296875 0.984375 7.296875 0.171875 L 7.296875 -1.484375 C 7.035156 -1.023438 6.648438 -0.640625 6.140625 -0.328125 C 5.628906 -0.0234375 5.035156 0.125 4.359375 0.125 C 3.660156 0.125 3.023438 -0.046875 2.453125 -0.390625 C 1.878906 -0.734375 1.429688 -1.21875 1.109375 -1.84375 C 0.785156 -2.46875 0.625 -3.175781 0.625 -3.96875 C 0.625 -4.78125 0.785156 -5.488281 1.109375 -6.09375 C 1.429688 -6.707031 1.878906 -7.179688 2.453125 -7.515625 C 3.023438 -7.847656 3.660156 -8.015625 4.359375 -8.015625 Z M 7.296875 -3.953125 C 7.296875 -4.546875 7.175781 -5.0625 6.9375 -5.5 C 6.695312 -5.945312 6.375 -6.285156 5.96875 -6.515625 C 5.5625 -6.753906 5.113281 -6.875 4.625 -6.875 C 4.132812 -6.875 3.6875 -6.757812 3.28125 -6.53125 C 2.875 -6.300781 2.550781 -5.960938 2.3125 -5.515625 C 2.070312 -5.078125 1.953125 -4.5625 1.953125 -3.96875 C 1.953125 -3.363281 2.070312 -2.835938 2.3125 -2.390625 C 2.550781 -1.953125 2.875 -1.613281 3.28125 -1.375 C 3.6875 -1.132812 4.132812 -1.015625 4.625 -1.015625 C 5.113281 -1.015625 5.5625 -1.132812 5.96875 -1.375 C 6.375 -1.613281 6.695312 -1.953125 6.9375 -2.390625 C 7.175781 -2.835938 7.296875 -3.359375 7.296875 -3.953125 Z M 7.296875 -3.953125 "/></g></g></g><g fill="#2563eb" fill-opacity="1"><g transform="translate(229.410947, 68.348691)"><g><path d="M 8.296875 -4.25 C 8.296875 -4 8.285156 -3.734375 8.265625 -3.453125 L 1.953125 -3.453125 C 2.003906 -2.671875 2.269531 -2.0625 2.75 -1.625 C 3.238281 -1.195312 3.828125 -0.984375 4.515625 -0.984375 C 5.085938 -0.984375 5.5625 -1.113281 5.9375 -1.375 C 6.3125 -1.632812 6.578125 -1.988281 6.734375 -2.4375 L 8.140625 -2.4375 C 7.929688 -1.675781 7.507812 -1.054688 6.875 -0.578125 C 6.238281 -0.109375 5.453125 0.125 4.515625 0.125 C 3.765625 0.125 3.09375 -0.0390625 2.5 -0.375 C 1.914062 -0.707031 1.457031 -1.179688 1.125 -1.796875 C 0.789062 -2.421875 0.625 -3.140625 0.625 -3.953125 C 0.625 -4.773438 0.785156 -5.488281 1.109375 -6.09375 C 1.429688 -6.707031 1.890625 -7.179688 2.484375 -7.515625 C 3.078125 -7.847656 3.753906 -8.015625 4.515625 -8.015625 C 5.265625 -8.015625 5.925781 -7.847656 6.5 -7.515625 C 7.082031 -7.191406 7.523438 -6.742188 7.828125 -6.171875 C 8.140625 -5.609375 8.296875 -4.96875 8.296875 -4.25 Z M 6.953125 -4.515625 C 6.953125 -5.015625 6.835938 -5.441406 6.609375 -5.796875 C 6.390625 -6.160156 6.09375 -6.4375 5.71875 -6.625 C 5.34375 -6.8125 4.925781 -6.90625 4.46875 -6.90625 C 3.800781 -6.90625 3.234375 -6.691406 2.765625 -6.265625 C 2.304688 -5.847656 2.039062 -5.265625 1.96875 -4.515625 Z M 6.953125 -4.515625 "/></g></g></g><g fill="#2563eb" fill-opacity="1"><g transform="translate(238.329941, 68.348691)"><g><path d="M 4.953125 -8.03125 C 5.910156 -8.03125 6.6875 -7.738281 7.28125 -7.15625 C 7.875 -6.570312 8.171875 -5.734375 8.171875 -4.640625 L 8.171875 0 L 6.875 0 L 6.875 -4.46875 C 6.875 -5.25 6.675781 -5.847656 6.28125 -6.265625 C 5.894531 -6.679688 5.359375 -6.890625 4.671875 -6.890625 C 3.984375 -6.890625 3.4375 -6.671875 3.03125 -6.234375 C 2.625 -5.804688 2.421875 -5.179688 2.421875 -4.359375 L 2.421875 0 L 1.109375 0 L 1.109375 -7.890625 L 2.421875 -7.890625 L 2.421875 -6.765625 C 2.679688 -7.171875 3.03125 -7.484375 3.46875 -7.703125 C 3.914062 -7.921875 4.410156 -8.03125 4.953125 -8.03125 Z M 4.953125 -8.03125 "/></g></g></g><g fill="#2563eb" fill-opacity="1"><g transform="translate(247.536646, 68.348691)"><g><path d="M 0.625 -3.953125 C 0.625 -4.773438 0.785156 -5.488281 1.109375 -6.09375 C 1.429688 -6.707031 1.882812 -7.179688 2.46875 -7.515625 C 3.050781 -7.847656 3.71875 -8.015625 4.46875 -8.015625 C 5.4375 -8.015625 6.234375 -7.78125 6.859375 -7.3125 C 7.484375 -6.84375 7.898438 -6.191406 8.109375 -5.359375 L 6.6875 -5.359375 C 6.550781 -5.835938 6.289062 -6.210938 5.90625 -6.484375 C 5.519531 -6.765625 5.039062 -6.90625 4.46875 -6.90625 C 3.71875 -6.90625 3.109375 -6.648438 2.640625 -6.140625 C 2.179688 -5.628906 1.953125 -4.898438 1.953125 -3.953125 C 1.953125 -3.003906 2.179688 -2.269531 2.640625 -1.75 C 3.109375 -1.238281 3.71875 -0.984375 4.46875 -0.984375 C 5.039062 -0.984375 5.515625 -1.113281 5.890625 -1.375 C 6.273438 -1.644531 6.539062 -2.03125 6.6875 -2.53125 L 8.109375 -2.53125 C 7.890625 -1.726562 7.460938 -1.082031 6.828125 -0.59375 C 6.203125 -0.113281 5.414062 0.125 4.46875 0.125 C 3.71875 0.125 3.050781 -0.0390625 2.46875 -0.375 C 1.882812 -0.707031 1.429688 -1.179688 1.109375 -1.796875 C 0.785156 -2.410156 0.625 -3.128906 0.625 -3.953125 Z M 0.625 -3.953125 "/></g></g></g><g fill="#2563eb" fill-opacity="1"><g transform="translate(256.268633, 68.348691)"><g><path d="M 8.296875 -4.25 C 8.296875 -4 8.285156 -3.734375 8.265625 -3.453125 L 1.953125 -3.453125 C 2.003906 -2.671875 2.269531 -2.0625 2.75 -1.625 C 3.238281 -1.195312 3.828125 -0.984375 4.515625 -0.984375 C 5.085938 -0.984375 5.5625 -1.113281 5.9375 -1.375 C 6.3125 -1.632812 6.578125 -1.988281 6.734375 -2.4375 L 8.140625 -2.4375 C 7.929688 -1.675781 7.507812 -1.054688 6.875 -0.578125 C 6.238281 -0.109375 5.453125 0.125 4.515625 0.125 C 3.765625 0.125 3.09375 -0.0390625 2.5 -0.375 C 1.914062 -0.707031 1.457031 -1.179688 1.125 -1.796875 C 0.789062 -2.421875 0.625 -3.140625 0.625 -3.953125 C 0.625 -4.773438 0.785156 -5.488281 1.109375 -6.09375 C 1.429688 -6.707031 1.890625 -7.179688 2.484375 -7.515625 C 3.078125 -7.847656 3.753906 -8.015625 4.515625 -8.015625 C 5.265625 -8.015625 5.925781 -7.847656 6.5 -7.515625 C 7.082031 -7.191406 7.523438 -6.742188 7.828125 -6.171875 C 8.140625 -5.609375 8.296875 -4.96875 8.296875 -4.25 Z M 6.953125 -4.515625 C 6.953125 -5.015625 6.835938 -5.441406 6.609375 -5.796875 C 6.390625 -6.160156 6.09375 -6.4375 5.71875 -6.625 C 5.34375 -6.8125 4.925781 -6.90625 4.46875 -6.90625 C 3.800781 -6.90625 3.234375 -6.691406 2.765625 -6.265625 C 2.304688 -5.847656 2.039062 -5.265625 1.96875 -4.515625 Z M 6.953125 -4.515625 "/></g></g></g></svg>