<svg xmlns="http://www.w3.org/2000/svg" viewBox="0 0 220 60">
    <defs>
        <linearGradient id="gac-logo-gradient" x1="0%" y1="0%" x2="100%" y2="100%">
            <stop offset="0%" stop-color="#2563eb"/>
            <stop offset="100%" stop-color="#1e3a8a"/>
        </linearGradient>
    </defs>
    <rect x="2" y="6" width="70" height="48" rx="12" fill="url(#gac-logo-gradient)"/>
    <path d="M26.5 41.5c-6.9 0-12-5-12-11.7 0-6.7 5.2-11.7 12.2-11.7 4.5 0 8.4 2 10.3 5.3l-5.3 2.7c-.9-1.6-2.7-2.6-4.9-2.6-3.5 0-6 2.4-6 6.3 0 3.7 2.4 6.2 5.8 6.2 2.8 0 4.8-1.3 5.3-3.2h-5.5v-4.8h11.4v1.6c0 6.8-4.9 11.9-11.3 11.9z" fill="#f8fafc"/>
    <text x="90" y="39" font-family="Inter, Arial, sans-serif" font-size="28" font-weight="700" fill="#1f2937">GAC Leads</text>
    <text x="90" y="50" font-family="Inter, Arial, sans-serif" font-size="12" fill="#64748b" letter-spacing="2">DATA INTELLIGENCE</text>
</svg>
