<svg xmlns="http://www.w3.org/2000/svg" xmlns:xlink="http://www.w3.org/1999/xlink" width="575" zoomAndPan="magnify" viewBox="0 0 431.25 172.499995" height="230" preserveAspectRatio="xMidYMid meet" version="1.0"><defs><g/><clipPath id="2f962f18c8"><path d="M 22 57 L 105 57 L 105 114 L 22 114 Z M 22 57 " clip-rule="nonzero"/></clipPath><clipPath id="f922f862dc"><path d="M 36.324219 57.726562 L 90.421875 57.726562 C 91.351562 57.726562 92.269531 57.820312 93.175781 58 C 94.085938 58.179688 94.96875 58.445312 95.824219 58.796875 C 96.679688 59.152344 97.492188 59.585938 98.265625 60.097656 C 99.035156 60.609375 99.746094 61.195312 100.402344 61.847656 C 101.058594 62.5 101.644531 63.210938 102.160156 63.976562 C 102.671875 64.746094 103.109375 65.554688 103.460938 66.40625 C 103.816406 67.261719 104.085938 68.140625 104.265625 69.042969 C 104.445312 69.949219 104.535156 70.863281 104.535156 71.789062 L 104.535156 99.90625 C 104.535156 100.828125 104.445312 101.742188 104.265625 102.648438 C 104.085938 103.554688 103.816406 104.433594 103.460938 105.285156 C 103.109375 106.140625 102.671875 106.949219 102.160156 107.71875 C 101.644531 108.484375 101.058594 109.195312 100.402344 109.847656 C 99.746094 110.5 99.035156 111.082031 98.265625 111.597656 C 97.492188 112.109375 96.679688 112.542969 95.824219 112.894531 C 94.96875 113.25 94.085938 113.515625 93.175781 113.695312 C 92.269531 113.875 91.351562 113.964844 90.421875 113.964844 L 36.324219 113.964844 C 35.398438 113.964844 34.480469 113.875 33.570312 113.695312 C 32.660156 113.515625 31.78125 113.25 30.921875 112.894531 C 30.066406 112.542969 29.253906 112.109375 28.484375 111.597656 C 27.710938 111.082031 27 110.5 26.34375 109.847656 C 25.6875 109.195312 25.105469 108.484375 24.589844 107.71875 C 24.074219 106.949219 23.640625 106.140625 23.285156 105.285156 C 22.929688 104.433594 22.664062 103.554688 22.480469 102.648438 C 22.300781 101.742188 22.210938 100.828125 22.210938 99.90625 L 22.210938 71.789062 C 22.210938 70.863281 22.300781 69.949219 22.480469 69.042969 C 22.664062 68.140625 22.929688 67.261719 23.285156 66.40625 C 23.640625 65.554688 24.074219 64.746094 24.589844 63.976562 C 25.105469 63.210938 25.6875 62.5 26.34375 61.847656 C 27 61.195312 27.710938 60.609375 28.484375 60.097656 C 29.253906 59.585938 30.066406 59.152344 30.921875 58.796875 C 31.78125 58.445312 32.660156 58.179688 33.570312 58 C 34.480469 57.820312 35.398438 57.726562 36.324219 57.726562 Z M 36.324219 57.726562 " clip-rule="nonzero"/></clipPath><linearGradient x1="-0.0000000295876" gradientTransform="matrix(82.325817, 0, 0, 56.236991, 22.210996, 57.728421)" y1="-0.0000000295876" x2="1" gradientUnits="userSpaceOnUse" y2="1" id="4388312dd5"><stop stop-opacity="1" stop-color="rgb(14.509583%, 38.819885%, 92.158508%)" offset="0"/><stop stop-opacity="1" stop-color="rgb(14.498901%, 38.755798%, 92.010498%)" offset="0.0078125"/><stop stop-opacity="1" stop-color="rgb(14.477539%, 38.630676%, 91.712952%)" offset="0.015625"/><stop stop-opacity="1" stop-color="rgb(14.456177%, 38.505554%, 91.415405%)" offset="0.0234375"/><stop stop-opacity="1" stop-color="rgb(14.433289%, 38.378906%, 91.117859%)" offset="0.03125"/><stop stop-opacity="1" stop-color="rgb(14.411926%, 38.253784%, 90.821838%)" offset="0.0390625"/><stop stop-opacity="1" stop-color="rgb(14.390564%, 38.128662%, 90.524292%)" offset="0.046875"/><stop stop-opacity="1" stop-color="rgb(14.369202%, 38.00354%, 90.226746%)" offset="0.0546875"/><stop stop-opacity="1" stop-color="rgb(14.347839%, 37.876892%, 89.929199%)" offset="0.0625"/><stop stop-opacity="1" stop-color="rgb(14.326477%, 37.75177%, 89.633179%)" offset="0.0703125"/><stop stop-opacity="1" stop-color="rgb(14.305115%, 37.626648%, 89.335632%)" offset="0.078125"/><stop stop-opacity="1" stop-color="rgb(14.283752%, 37.501526%, 89.038086%)" offset="0.0859375"/><stop stop-opacity="1" stop-color="rgb(14.26239%, 37.374878%, 88.74054%)" offset="0.09375"/><stop stop-opacity="1" stop-color="rgb(14.241028%, 37.249756%, 88.444519%)" offset="0.101563"/><stop stop-opacity="1" stop-color="rgb(14.219666%, 37.124634%, 88.146973%)" offset="0.109375"/><stop stop-opacity="1" stop-color="rgb(14.198303%, 36.997986%, 87.849426%)" offset="0.117188"/><stop stop-opacity="1" stop-color="rgb(14.175415%, 36.872864%, 87.55188%)" offset="0.125"/><stop stop-opacity="1" stop-color="rgb(14.154053%, 36.747742%, 87.254333%)" offset="0.132812"/><stop stop-opacity="1" stop-color="rgb(14.13269%, 36.62262%, 86.958313%)" offset="0.140625"/><stop stop-opacity="1" stop-color="rgb(14.111328%, 36.495972%, 86.660767%)" offset="0.148438"/><stop stop-opacity="1" stop-color="rgb(14.089966%, 36.37085%, 86.36322%)" offset="0.15625"/><stop stop-opacity="1" stop-color="rgb(14.068604%, 36.245728%, 86.065674%)" offset="0.164063"/><stop stop-opacity="1" stop-color="rgb(14.047241%, 36.11908%, 85.769653%)" offset="0.171875"/><stop stop-opacity="1" stop-color="rgb(14.025879%, 35.993958%, 85.472107%)" offset="0.179688"/><stop stop-opacity="1" stop-color="rgb(14.004517%, 35.868835%, 85.174561%)" offset="0.1875"/><stop stop-opacity="1" stop-color="rgb(13.983154%, 35.743713%, 84.877014%)" offset="0.195313"/><stop stop-opacity="1" stop-color="rgb(13.961792%, 35.617065%, 84.580994%)" offset="0.203125"/><stop stop-opacity="1" stop-color="rgb(13.94043%, 35.491943%, 84.283447%)" offset="0.210938"/><stop stop-opacity="1" stop-color="rgb(13.919067%, 35.366821%, 83.985901%)" offset="0.21875"/><stop stop-opacity="1" stop-color="rgb(13.896179%, 35.241699%, 83.688354%)" offset="0.226563"/><stop stop-opacity="1" stop-color="rgb(13.874817%, 35.115051%, 83.392334%)" offset="0.234375"/><stop stop-opacity="1" stop-color="rgb(13.853455%, 34.989929%, 83.094788%)" offset="0.242188"/><stop stop-opacity="1" stop-color="rgb(13.832092%, 34.864807%, 82.797241%)" offset="0.25"/><stop stop-opacity="1" stop-color="rgb(13.81073%, 34.738159%, 82.499695%)" offset="0.257813"/><stop stop-opacity="1" stop-color="rgb(13.789368%, 34.613037%, 82.202148%)" offset="0.265625"/><stop stop-opacity="1" stop-color="rgb(13.768005%, 34.487915%, 81.906128%)" offset="0.273438"/><stop stop-opacity="1" stop-color="rgb(13.746643%, 34.362793%, 81.608582%)" offset="0.28125"/><stop stop-opacity="1" stop-color="rgb(13.725281%, 34.236145%, 81.311035%)" offset="0.289062"/><stop stop-opacity="1" stop-color="rgb(13.703918%, 34.111023%, 81.013489%)" offset="0.296875"/><stop stop-opacity="1" stop-color="rgb(13.682556%, 33.985901%, 80.717468%)" offset="0.304688"/><stop stop-opacity="1" stop-color="rgb(13.661194%, 33.859253%, 80.419922%)" offset="0.3125"/><stop stop-opacity="1" stop-color="rgb(13.638306%, 33.734131%, 80.122375%)" offset="0.320312"/><stop stop-opacity="1" stop-color="rgb(13.616943%, 33.609009%, 79.824829%)" offset="0.328125"/><stop stop-opacity="1" stop-color="rgb(13.595581%, 33.483887%, 79.528809%)" offset="0.335938"/><stop stop-opacity="1" stop-color="rgb(13.574219%, 33.357239%, 79.231262%)" offset="0.34375"/><stop stop-opacity="1" stop-color="rgb(13.552856%, 33.232117%, 78.933716%)" offset="0.351563"/><stop stop-opacity="1" stop-color="rgb(13.531494%, 33.106995%, 78.636169%)" offset="0.359375"/><stop stop-opacity="1" stop-color="rgb(13.510132%, 32.980347%, 78.340149%)" offset="0.367188"/><stop stop-opacity="1" stop-color="rgb(13.48877%, 32.855225%, 78.042603%)" offset="0.375"/><stop stop-opacity="1" stop-color="rgb(13.467407%, 32.730103%, 77.745056%)" offset="0.382812"/><stop stop-opacity="1" stop-color="rgb(13.446045%, 32.60498%, 77.44751%)" offset="0.390625"/><stop stop-opacity="1" stop-color="rgb(13.424683%, 32.478333%, 77.149963%)" offset="0.398438"/><stop stop-opacity="1" stop-color="rgb(13.40332%, 32.35321%, 76.853943%)" offset="0.40625"/><stop stop-opacity="1" stop-color="rgb(13.381958%, 32.228088%, 76.556396%)" offset="0.414062"/><stop stop-opacity="1" stop-color="rgb(13.35907%, 32.102966%, 76.25885%)" offset="0.421875"/><stop stop-opacity="1" stop-color="rgb(13.337708%, 31.976318%, 75.961304%)" offset="0.429688"/><stop stop-opacity="1" stop-color="rgb(13.316345%, 31.851196%, 75.665283%)" offset="0.4375"/><stop stop-opacity="1" stop-color="rgb(13.294983%, 31.726074%, 75.367737%)" offset="0.445313"/><stop stop-opacity="1" stop-color="rgb(13.273621%, 31.599426%, 75.07019%)" offset="0.453125"/><stop stop-opacity="1" stop-color="rgb(13.252258%, 31.474304%, 74.772644%)" offset="0.460938"/><stop stop-opacity="1" stop-color="rgb(13.230896%, 31.349182%, 74.476624%)" offset="0.46875"/><stop stop-opacity="1" stop-color="rgb(13.209534%, 31.22406%, 74.179077%)" offset="0.476562"/><stop stop-opacity="1" stop-color="rgb(13.188171%, 31.097412%, 73.881531%)" offset="0.484375"/><stop stop-opacity="1" stop-color="rgb(13.166809%, 30.97229%, 73.583984%)" offset="0.492188"/><stop stop-opacity="1" stop-color="rgb(13.145447%, 30.847168%, 73.287964%)" offset="0.5"/><stop stop-opacity="1" stop-color="rgb(13.134766%, 30.784607%, 73.139954%)" offset="0.5"/><stop stop-opacity="1" stop-color="rgb(13.124084%, 30.72052%, 72.990417%)" offset="0.5"/><stop stop-opacity="1" stop-color="rgb(13.113403%, 30.657959%, 72.842407%)" offset="0.507812"/><stop stop-opacity="1" stop-color="rgb(13.101196%, 30.595398%, 72.692871%)" offset="0.515625"/><stop stop-opacity="1" stop-color="rgb(13.079834%, 30.470276%, 72.395325%)" offset="0.523438"/><stop stop-opacity="1" stop-color="rgb(13.058472%, 30.345154%, 72.097778%)" offset="0.53125"/><stop stop-opacity="1" stop-color="rgb(13.037109%, 30.218506%, 71.801758%)" offset="0.539063"/><stop stop-opacity="1" stop-color="rgb(13.015747%, 30.093384%, 71.504211%)" offset="0.546875"/><stop stop-opacity="1" stop-color="rgb(12.994385%, 29.968262%, 71.206665%)" offset="0.554687"/><stop stop-opacity="1" stop-color="rgb(12.973022%, 29.84314%, 70.909119%)" offset="0.5625"/><stop stop-opacity="1" stop-color="rgb(12.95166%, 29.716492%, 70.613098%)" offset="0.570312"/><stop stop-opacity="1" stop-color="rgb(12.930298%, 29.59137%, 70.315552%)" offset="0.578125"/><stop stop-opacity="1" stop-color="rgb(12.908936%, 29.466248%, 70.018005%)" offset="0.585938"/><stop stop-opacity="1" stop-color="rgb(12.887573%, 29.3396%, 69.720459%)" offset="0.59375"/><stop stop-opacity="1" stop-color="rgb(12.866211%, 29.214478%, 69.424438%)" offset="0.601562"/><stop stop-opacity="1" stop-color="rgb(12.844849%, 29.089355%, 69.126892%)" offset="0.609375"/><stop stop-opacity="1" stop-color="rgb(12.82196%, 28.964233%, 68.829346%)" offset="0.617188"/><stop stop-opacity="1" stop-color="rgb(12.800598%, 28.837585%, 68.531799%)" offset="0.625"/><stop stop-opacity="1" stop-color="rgb(12.779236%, 28.712463%, 68.235779%)" offset="0.632813"/><stop stop-opacity="1" stop-color="rgb(12.757874%, 28.587341%, 67.938232%)" offset="0.640625"/><stop stop-opacity="1" stop-color="rgb(12.736511%, 28.460693%, 67.640686%)" offset="0.648438"/><stop stop-opacity="1" stop-color="rgb(12.715149%, 28.335571%, 67.34314%)" offset="0.65625"/><stop stop-opacity="1" stop-color="rgb(12.693787%, 28.210449%, 67.045593%)" offset="0.664062"/><stop stop-opacity="1" stop-color="rgb(12.672424%, 28.085327%, 66.749573%)" offset="0.671875"/><stop stop-opacity="1" stop-color="rgb(12.651062%, 27.958679%, 66.452026%)" offset="0.679688"/><stop stop-opacity="1" stop-color="rgb(12.6297%, 27.833557%, 66.15448%)" offset="0.6875"/><stop stop-opacity="1" stop-color="rgb(12.608337%, 27.708435%, 65.856934%)" offset="0.695312"/><stop stop-opacity="1" stop-color="rgb(12.586975%, 27.583313%, 65.560913%)" offset="0.703125"/><stop stop-opacity="1" stop-color="rgb(12.564087%, 27.456665%, 65.263367%)" offset="0.710938"/><stop stop-opacity="1" stop-color="rgb(12.542725%, 27.331543%, 64.96582%)" offset="0.71875"/><stop stop-opacity="1" stop-color="rgb(12.521362%, 27.206421%, 64.668274%)" offset="0.726563"/><stop stop-opacity="1" stop-color="rgb(12.5%, 27.079773%, 64.372253%)" offset="0.734375"/><stop stop-opacity="1" stop-color="rgb(12.478638%, 26.954651%, 64.074707%)" offset="0.742188"/><stop stop-opacity="1" stop-color="rgb(12.457275%, 26.829529%, 63.777161%)" offset="0.75"/><stop stop-opacity="1" stop-color="rgb(12.435913%, 26.704407%, 63.479614%)" offset="0.757812"/><stop stop-opacity="1" stop-color="rgb(12.414551%, 26.577759%, 63.183594%)" offset="0.765625"/><stop stop-opacity="1" stop-color="rgb(12.393188%, 26.452637%, 62.886047%)" offset="0.773437"/><stop stop-opacity="1" stop-color="rgb(12.371826%, 26.327515%, 62.588501%)" offset="0.78125"/><stop stop-opacity="1" stop-color="rgb(12.350464%, 26.200867%, 62.290955%)" offset="0.789062"/><stop stop-opacity="1" stop-color="rgb(12.329102%, 26.075745%, 61.993408%)" offset="0.796875"/><stop stop-opacity="1" stop-color="rgb(12.307739%, 25.950623%, 61.697388%)" offset="0.804688"/><stop stop-opacity="1" stop-color="rgb(12.284851%, 25.8255%, 61.399841%)" offset="0.8125"/><stop stop-opacity="1" stop-color="rgb(12.263489%, 25.698853%, 61.102295%)" offset="0.820312"/><stop stop-opacity="1" stop-color="rgb(12.242126%, 25.57373%, 60.804749%)" offset="0.828125"/><stop stop-opacity="1" stop-color="rgb(12.220764%, 25.448608%, 60.508728%)" offset="0.835938"/><stop stop-opacity="1" stop-color="rgb(12.199402%, 25.323486%, 60.211182%)" offset="0.84375"/><stop stop-opacity="1" stop-color="rgb(12.17804%, 25.196838%, 59.913635%)" offset="0.851562"/><stop stop-opacity="1" stop-color="rgb(12.156677%, 25.071716%, 59.616089%)" offset="0.859375"/><stop stop-opacity="1" stop-color="rgb(12.135315%, 24.946594%, 59.320068%)" offset="0.867187"/><stop stop-opacity="1" stop-color="rgb(12.113953%, 24.819946%, 59.022522%)" offset="0.875"/><stop stop-opacity="1" stop-color="rgb(12.09259%, 24.694824%, 58.724976%)" offset="0.882812"/><stop stop-opacity="1" stop-color="rgb(12.071228%, 24.569702%, 58.427429%)" offset="0.890625"/><stop stop-opacity="1" stop-color="rgb(12.049866%, 24.44458%, 58.131409%)" offset="0.898438"/><stop stop-opacity="1" stop-color="rgb(12.026978%, 24.317932%, 57.833862%)" offset="0.90625"/><stop stop-opacity="1" stop-color="rgb(12.005615%, 24.19281%, 57.536316%)" offset="0.914062"/><stop stop-opacity="1" stop-color="rgb(11.984253%, 24.067688%, 57.23877%)" offset="0.921875"/><stop stop-opacity="1" stop-color="rgb(11.962891%, 23.94104%, 56.941223%)" offset="0.929688"/><stop stop-opacity="1" stop-color="rgb(11.941528%, 23.815918%, 56.645203%)" offset="0.9375"/><stop stop-opacity="1" stop-color="rgb(11.920166%, 23.690796%, 56.347656%)" offset="0.945313"/><stop stop-opacity="1" stop-color="rgb(11.898804%, 23.565674%, 56.05011%)" offset="0.953125"/><stop stop-opacity="1" stop-color="rgb(11.877441%, 23.439026%, 55.752563%)" offset="0.960937"/><stop stop-opacity="1" stop-color="rgb(11.856079%, 23.313904%, 55.456543%)" offset="0.96875"/><stop stop-opacity="1" stop-color="rgb(11.834717%, 23.188782%, 55.158997%)" offset="0.976562"/><stop stop-opacity="1" stop-color="rgb(11.813354%, 23.062134%, 54.86145%)" offset="0.984375"/><stop stop-opacity="1" stop-color="rgb(11.791992%, 22.937012%, 54.563904%)" offset="0.992188"/><stop stop-opacity="1" stop-color="rgb(11.77063%, 22.81189%, 54.267883%)" offset="1"/></linearGradient><clipPath id="c4bb9ed73e"><rect x="0" width="304" y="0" height="79"/></clipPath><clipPath id="4497a5e84c"><rect x="0" width="154" y="0" height="28"/></clipPath></defs><g clip-path="url(#2f962f18c8)"><g clip-path="url(#f922f862dc)"><path fill="url(#4388312dd5)" d="M 22.210938 57.726562 L 22.210938 113.964844 L 104.535156 113.964844 L 104.535156 57.726562 Z M 22.210938 57.726562 " fill-rule="nonzero"/></g></g><path fill="#f8fafc" d="M 51.023438 99.320312 C 42.910156 99.320312 36.910156 93.460938 36.910156 85.613281 C 36.910156 77.761719 43.027344 71.90625 51.261719 71.90625 C 56.550781 71.90625 61.140625 74.246094 63.375 78.113281 L 57.140625 81.277344 C 56.082031 79.402344 53.964844 78.230469 51.378906 78.230469 C 47.261719 78.230469 44.320312 81.042969 44.320312 85.613281 C 44.320312 89.949219 47.144531 92.875 51.144531 92.875 C 54.4375 92.875 56.789062 91.351562 57.375 89.128906 L 50.90625 89.128906 L 50.90625 83.503906 L 64.316406 83.503906 L 64.316406 85.378906 C 64.316406 93.34375 58.550781 99.320312 51.023438 99.320312 Z M 51.023438 99.320312 " fill-opacity="1" fill-rule="nonzero"/><g transform="matrix(1, 0, 0, 1, 108, 40)"><g clip-path="url(#c4bb9ed73e)"><g fill="#2563eb" fill-opacity="1"><g transform="translate(0.984132, 58.759738)"><g><path d="M 33.765625 -27.625 C 32.679688 -29.894531 31.117188 -31.648438 29.078125 -32.890625 C 27.035156 -34.140625 24.65625 -34.765625 21.9375 -34.765625 C 19.21875 -34.765625 16.769531 -34.140625 14.59375 -32.890625 C 12.414062 -31.648438 10.703125 -29.867188 9.453125 -27.546875 C 8.210938 -25.222656 7.59375 -22.535156 7.59375 -19.484375 C 7.59375 -16.429688 8.210938 -13.75 9.453125 -11.4375 C 10.703125 -9.132812 12.414062 -7.359375 14.59375 -6.109375 C 16.769531 -4.859375 19.21875 -4.234375 21.9375 -4.234375 C 25.726562 -4.234375 28.851562 -5.367188 31.3125 -7.640625 C 33.769531 -9.910156 35.203125 -12.984375 35.609375 -16.859375 L 20.09375 -16.859375 L 20.09375 -20.984375 L 41.015625 -20.984375 L 41.015625 -17.078125 C 40.722656 -13.878906 39.71875 -10.945312 38 -8.28125 C 36.289062 -5.625 34.039062 -3.523438 31.25 -1.984375 C 28.457031 -0.441406 25.351562 0.328125 21.9375 0.328125 C 18.320312 0.328125 15.023438 -0.515625 12.046875 -2.203125 C 9.078125 -3.898438 6.726562 -6.253906 5 -9.265625 C 3.269531 -12.273438 2.40625 -15.679688 2.40625 -19.484375 C 2.40625 -23.273438 3.269531 -26.6875 5 -29.71875 C 6.726562 -32.75 9.078125 -35.109375 12.046875 -36.796875 C 15.023438 -38.492188 18.320312 -39.34375 21.9375 -39.34375 C 26.0625 -39.34375 29.710938 -38.316406 32.890625 -36.265625 C 36.078125 -34.222656 38.394531 -31.34375 39.84375 -27.625 Z M 33.765625 -27.625 "/></g></g></g><g fill="#2563eb" fill-opacity="1"><g transform="translate(44.411765, 58.759738)"><g><path d="M 27.296875 -8.65625 L 10.328125 -8.65625 L 7.203125 0 L 1.84375 0 L 15.90625 -38.671875 L 21.765625 -38.671875 L 35.78125 0 L 30.421875 0 Z M 25.84375 -12.78125 L 18.8125 -32.421875 L 11.78125 -12.78125 Z M 25.84375 -12.78125 "/></g></g></g><g fill="#2563eb" fill-opacity="1"><g transform="translate(82.034167, 58.759738)"><g><path d="M 2.40625 -19.484375 C 2.40625 -23.273438 3.257812 -26.6875 4.96875 -29.71875 C 6.675781 -32.75 9.007812 -35.117188 11.96875 -36.828125 C 14.925781 -38.546875 18.210938 -39.40625 21.828125 -39.40625 C 26.066406 -39.40625 29.765625 -38.378906 32.921875 -36.328125 C 36.085938 -34.285156 38.394531 -31.382812 39.84375 -27.625 L 33.765625 -27.625 C 32.679688 -29.96875 31.125 -31.769531 29.09375 -33.03125 C 27.070312 -34.300781 24.648438 -34.9375 21.828125 -34.9375 C 19.109375 -34.9375 16.671875 -34.300781 14.515625 -33.03125 C 12.359375 -31.769531 10.664062 -29.976562 9.4375 -27.65625 C 8.207031 -25.332031 7.59375 -22.609375 7.59375 -19.484375 C 7.59375 -16.390625 8.207031 -13.679688 9.4375 -11.359375 C 10.664062 -9.035156 12.359375 -7.238281 14.515625 -5.96875 C 16.671875 -4.707031 19.109375 -4.078125 21.828125 -4.078125 C 24.648438 -4.078125 27.070312 -4.695312 29.09375 -5.9375 C 31.125 -7.1875 32.679688 -8.984375 33.765625 -11.328125 L 39.84375 -11.328125 C 38.394531 -7.609375 36.085938 -4.734375 32.921875 -2.703125 C 29.765625 -0.679688 26.066406 0.328125 21.828125 0.328125 C 18.210938 0.328125 14.925781 -0.515625 11.96875 -2.203125 C 9.007812 -3.898438 6.675781 -6.253906 4.96875 -9.265625 C 3.257812 -12.273438 2.40625 -15.679688 2.40625 -19.484375 Z M 2.40625 -19.484375 "/></g></g></g><g fill="#2563eb" fill-opacity="1"><g transform="translate(125.12689, 58.759738)"><g/></g></g><g fill="#2563eb" fill-opacity="1"><g transform="translate(140.030718, 58.759738)"><g><path d="M 9.375 -4.125 L 23 -4.125 L 23 0 L 4.296875 0 L 4.296875 -38.90625 L 9.375 -38.90625 Z M 9.375 -4.125 "/></g></g></g><g fill="#2563eb" fill-opacity="1"><g transform="translate(164.144776, 58.759738)"><g><path d="M 9.375 -34.765625 L 9.375 -21.765625 L 23.546875 -21.765625 L 23.546875 -17.578125 L 9.375 -17.578125 L 9.375 -4.1875 L 25.234375 -4.1875 L 25.234375 0 L 4.296875 0 L 4.296875 -38.953125 L 25.234375 -38.953125 L 25.234375 -34.765625 Z M 9.375 -34.765625 "/></g></g></g><g fill="#2563eb" fill-opacity="1"><g transform="translate(192.780229, 58.759738)"><g><path d="M 27.296875 -8.65625 L 10.328125 -8.65625 L 7.203125 0 L 1.84375 0 L 15.90625 -38.671875 L 21.765625 -38.671875 L 35.78125 0 L 30.421875 0 Z M 25.84375 -12.78125 L 18.8125 -32.421875 L 11.78125 -12.78125 Z M 25.84375 -12.78125 "/></g></g></g><g fill="#2563eb" fill-opacity="1"><g transform="translate(230.402631, 58.759738)"><g><path d="M 16.40625 -38.90625 C 20.644531 -38.90625 24.316406 -38.113281 27.421875 -36.53125 C 30.535156 -34.945312 32.921875 -32.6875 34.578125 -29.75 C 36.234375 -26.8125 37.0625 -23.347656 37.0625 -19.359375 C 37.0625 -15.378906 36.234375 -11.925781 34.578125 -9 C 32.921875 -6.082031 30.535156 -3.851562 27.421875 -2.3125 C 24.316406 -0.769531 20.644531 0 16.40625 0 L 4.296875 0 L 4.296875 -38.90625 Z M 16.40625 -4.1875 C 21.425781 -4.1875 25.257812 -5.515625 27.90625 -8.171875 C 30.550781 -10.835938 31.875 -14.566406 31.875 -19.359375 C 31.875 -24.203125 30.539062 -27.976562 27.875 -30.6875 C 25.21875 -33.40625 21.394531 -34.765625 16.40625 -34.765625 L 9.375 -34.765625 L 9.375 -4.1875 Z M 16.40625 -4.1875 "/></g></g></g><g fill="#2563eb" fill-opacity="1"><g transform="translate(269.867077, 58.759738)"><g><path d="M 16.625 0.390625 C 14.0625 0.390625 11.765625 -0.0625 9.734375 -0.96875 C 7.710938 -1.882812 6.125 -3.148438 4.96875 -4.765625 C 3.8125 -6.390625 3.21875 -8.257812 3.1875 -10.375 L 8.59375 -10.375 C 8.78125 -8.550781 9.535156 -7.015625 10.859375 -5.765625 C 12.179688 -4.523438 14.101562 -3.90625 16.625 -3.90625 C 19.050781 -3.90625 20.960938 -4.507812 22.359375 -5.71875 C 23.753906 -6.925781 24.453125 -8.476562 24.453125 -10.375 C 24.453125 -11.863281 24.039062 -13.070312 23.21875 -14 C 22.394531 -14.9375 21.367188 -15.644531 20.140625 -16.125 C 18.921875 -16.613281 17.269531 -17.132812 15.1875 -17.6875 C 12.613281 -18.363281 10.554688 -19.035156 9.015625 -19.703125 C 7.472656 -20.367188 6.148438 -21.414062 5.046875 -22.84375 C 3.953125 -24.28125 3.40625 -26.207031 3.40625 -28.625 C 3.40625 -30.75 3.941406 -32.628906 5.015625 -34.265625 C 6.097656 -35.898438 7.613281 -37.164062 9.5625 -38.0625 C 11.519531 -38.957031 13.765625 -39.40625 16.296875 -39.40625 C 19.941406 -39.40625 22.925781 -38.492188 25.25 -36.671875 C 27.582031 -34.847656 28.894531 -32.425781 29.1875 -29.40625 L 23.609375 -29.40625 C 23.421875 -30.894531 22.640625 -32.207031 21.265625 -33.34375 C 19.890625 -34.476562 18.066406 -35.046875 15.796875 -35.046875 C 13.671875 -35.046875 11.9375 -34.492188 10.59375 -33.390625 C 9.257812 -32.296875 8.59375 -30.765625 8.59375 -28.796875 C 8.59375 -27.378906 8.992188 -26.222656 9.796875 -25.328125 C 10.597656 -24.441406 11.582031 -23.765625 12.75 -23.296875 C 13.925781 -22.835938 15.570312 -22.3125 17.6875 -21.71875 C 20.257812 -21.007812 22.328125 -20.304688 23.890625 -19.609375 C 25.453125 -18.921875 26.789062 -17.859375 27.90625 -16.421875 C 29.019531 -14.992188 29.578125 -13.054688 29.578125 -10.609375 C 29.578125 -8.710938 29.070312 -6.925781 28.0625 -5.25 C 27.0625 -3.570312 25.578125 -2.210938 23.609375 -1.171875 C 21.640625 -0.128906 19.3125 0.390625 16.625 0.390625 Z M 16.625 0.390625 "/></g></g></g></g></g><g transform="matrix(1, 0, 0, 1, 188, 100)"><g clip-path="url(#4497a5e84c)"><g fill="#2563eb" fill-opacity="1"><g transform="translate(0.609023, 20.688246)"><g><path d="M 9.0625 -6.703125 C 9.820312 -6.535156 10.429688 -6.15625 10.890625 -5.5625 C 11.347656 -4.976562 11.578125 -4.304688 11.578125 -3.546875 C 11.578125 -2.460938 11.191406 -1.597656 10.421875 -0.953125 C 9.660156 -0.316406 8.597656 0 7.234375 0 L 1.15625 0 L 1.15625 -13.0625 L 7.03125 -13.0625 C 8.363281 -13.0625 9.40625 -12.753906 10.15625 -12.140625 C 10.90625 -11.535156 11.28125 -10.710938 11.28125 -9.671875 C 11.28125 -8.898438 11.078125 -8.257812 10.671875 -7.75 C 10.265625 -7.25 9.726562 -6.898438 9.0625 -6.703125 Z M 4.34375 -7.78125 L 6.421875 -7.78125 C 6.941406 -7.78125 7.34375 -7.894531 7.625 -8.125 C 7.90625 -8.351562 8.046875 -8.691406 8.046875 -9.140625 C 8.046875 -9.585938 7.90625 -9.925781 7.625 -10.15625 C 7.34375 -10.394531 6.941406 -10.515625 6.421875 -10.515625 L 4.34375 -10.515625 Z M 6.6875 -2.5625 C 7.21875 -2.5625 7.628906 -2.679688 7.921875 -2.921875 C 8.210938 -3.171875 8.359375 -3.523438 8.359375 -3.984375 C 8.359375 -4.441406 8.203125 -4.800781 7.890625 -5.0625 C 7.585938 -5.320312 7.171875 -5.453125 6.640625 -5.453125 L 4.34375 -5.453125 L 4.34375 -2.5625 Z M 6.6875 -2.5625 "/></g></g></g><g fill="#2563eb" fill-opacity="1"><g transform="translate(12.870726, 20.688246)"><g><path d="M 0.71875 -2.546875 C 1.144531 -2.878906 1.335938 -3.035156 1.296875 -3.015625 C 2.515625 -4.015625 3.472656 -4.835938 4.171875 -5.484375 C 4.878906 -6.128906 5.472656 -6.804688 5.953125 -7.515625 C 6.441406 -8.222656 6.6875 -8.910156 6.6875 -9.578125 C 6.6875 -10.085938 6.566406 -10.484375 6.328125 -10.765625 C 6.085938 -11.054688 5.734375 -11.203125 5.265625 -11.203125 C 4.796875 -11.203125 4.425781 -11.023438 4.15625 -10.671875 C 3.894531 -10.316406 3.765625 -9.816406 3.765625 -9.171875 L 0.6875 -9.171875 C 0.707031 -10.222656 0.929688 -11.101562 1.359375 -11.8125 C 1.796875 -12.519531 2.363281 -13.039062 3.0625 -13.375 C 3.757812 -13.707031 4.535156 -13.875 5.390625 -13.875 C 6.867188 -13.875 7.984375 -13.492188 8.734375 -12.734375 C 9.484375 -11.984375 9.859375 -11 9.859375 -9.78125 C 9.859375 -8.457031 9.40625 -7.226562 8.5 -6.09375 C 7.59375 -4.957031 6.441406 -3.847656 5.046875 -2.765625 L 10.0625 -2.765625 L 10.0625 -0.1875 L 0.71875 -0.1875 Z M 0.71875 -2.546875 "/></g></g></g><g fill="#2563eb" fill-opacity="1"><g transform="translate(23.495052, 20.688246)"><g><path d="M 9.0625 -6.703125 C 9.820312 -6.535156 10.429688 -6.15625 10.890625 -5.5625 C 11.347656 -4.976562 11.578125 -4.304688 11.578125 -3.546875 C 11.578125 -2.460938 11.191406 -1.597656 10.421875 -0.953125 C 9.660156 -0.316406 8.597656 0 7.234375 0 L 1.15625 0 L 1.15625 -13.0625 L 7.03125 -13.0625 C 8.363281 -13.0625 9.40625 -12.753906 10.15625 -12.140625 C 10.90625 -11.535156 11.28125 -10.710938 11.28125 -9.671875 C 11.28125 -8.898438 11.078125 -8.257812 10.671875 -7.75 C 10.265625 -7.25 9.726562 -6.898438 9.0625 -6.703125 Z M 4.34375 -7.78125 L 6.421875 -7.78125 C 6.941406 -7.78125 7.34375 -7.894531 7.625 -8.125 C 7.90625 -8.351562 8.046875 -8.691406 8.046875 -9.140625 C 8.046875 -9.585938 7.90625 -9.925781 7.625 -10.15625 C 7.34375 -10.394531 6.941406 -10.515625 6.421875 -10.515625 L 4.34375 -10.515625 Z M 6.6875 -2.5625 C 7.21875 -2.5625 7.628906 -2.679688 7.921875 -2.921875 C 8.210938 -3.171875 8.359375 -3.523438 8.359375 -3.984375 C 8.359375 -4.441406 8.203125 -4.800781 7.890625 -5.0625 C 7.585938 -5.320312 7.171875 -5.453125 6.640625 -5.453125 L 4.34375 -5.453125 L 4.34375 -2.5625 Z M 6.6875 -2.5625 "/></g></g></g><g fill="#2563eb" fill-opacity="1"><g transform="translate(35.756755, 20.688246)"><g/></g></g><g fill="#2563eb" fill-opacity="1"><g transform="translate(39.701347, 20.688246)"><g><path d="M 2.75 -11.46875 C 2.195312 -11.46875 1.742188 -11.628906 1.390625 -11.953125 C 1.035156 -12.285156 0.859375 -12.691406 0.859375 -13.171875 C 0.859375 -13.671875 1.035156 -14.082031 1.390625 -14.40625 C 1.742188 -14.738281 2.195312 -14.90625 2.75 -14.90625 C 3.300781 -14.90625 3.753906 -14.738281 4.109375 -14.40625 C 4.460938 -14.082031 4.640625 -13.671875 4.640625 -13.171875 C 4.640625 -12.691406 4.460938 -12.285156 4.109375 -11.953125 C 3.753906 -11.628906 3.300781 -11.46875 2.75 -11.46875 Z M 4.34375 -10.390625 L 4.34375 0 L 1.15625 0 L 1.15625 -10.390625 Z M 4.34375 -10.390625 "/></g></g></g><g fill="#2563eb" fill-opacity="1"><g transform="translate(45.190281, 20.688246)"><g><path d="M 7.484375 -10.5 C 8.691406 -10.5 9.660156 -10.101562 10.390625 -9.3125 C 11.117188 -8.519531 11.484375 -7.4375 11.484375 -6.0625 L 11.484375 0 L 8.3125 0 L 8.3125 -5.640625 C 8.3125 -6.335938 8.128906 -6.875 7.765625 -7.25 C 7.410156 -7.632812 6.929688 -7.828125 6.328125 -7.828125 C 5.722656 -7.828125 5.238281 -7.632812 4.875 -7.25 C 4.519531 -6.875 4.34375 -6.335938 4.34375 -5.640625 L 4.34375 0 L 1.15625 0 L 1.15625 -10.390625 L 4.34375 -10.390625 L 4.34375 -9 C 4.65625 -9.46875 5.082031 -9.832031 5.625 -10.09375 C 6.175781 -10.363281 6.796875 -10.5 7.484375 -10.5 Z M 7.484375 -10.5 "/></g></g></g><g fill="#2563eb" fill-opacity="1"><g transform="translate(57.731088, 20.688246)"><g><path d="M 6.9375 -2.703125 L 6.9375 0 L 5.328125 0 C 4.171875 0 3.269531 -0.28125 2.625 -0.84375 C 1.976562 -1.40625 1.65625 -2.328125 1.65625 -3.609375 L 1.65625 -7.734375 L 0.390625 -7.734375 L 0.390625 -10.390625 L 1.65625 -10.390625 L 1.65625 -12.921875 L 4.84375 -12.921875 L 4.84375 -10.390625 L 6.921875 -10.390625 L 6.921875 -7.734375 L 4.84375 -7.734375 L 4.84375 -3.578125 C 4.84375 -3.265625 4.914062 -3.039062 5.0625 -2.90625 C 5.207031 -2.769531 5.457031 -2.703125 5.8125 -2.703125 Z M 6.9375 -2.703125 "/></g></g></g><g fill="#2563eb" fill-opacity="1"><g transform="translate(65.285344, 20.688246)"><g><path d="M 10.9375 -5.359375 C 10.9375 -5.054688 10.921875 -4.742188 10.890625 -4.421875 L 3.6875 -4.421875 C 3.738281 -3.785156 3.945312 -3.296875 4.3125 -2.953125 C 4.675781 -2.609375 5.125 -2.4375 5.65625 -2.4375 C 6.445312 -2.4375 7 -2.769531 7.3125 -3.4375 L 10.703125 -3.4375 C 10.523438 -2.757812 10.207031 -2.144531 9.75 -1.59375 C 9.300781 -1.050781 8.734375 -0.625 8.046875 -0.3125 C 7.367188 0 6.609375 0.15625 5.765625 0.15625 C 4.753906 0.15625 3.847656 -0.0625 3.046875 -0.5 C 2.253906 -0.9375 1.632812 -1.554688 1.1875 -2.359375 C 0.738281 -3.171875 0.515625 -4.113281 0.515625 -5.1875 C 0.515625 -6.269531 0.734375 -7.210938 1.171875 -8.015625 C 1.617188 -8.828125 2.238281 -9.445312 3.03125 -9.875 C 3.820312 -10.3125 4.734375 -10.53125 5.765625 -10.53125 C 6.773438 -10.53125 7.671875 -10.316406 8.453125 -9.890625 C 9.234375 -9.472656 9.84375 -8.875 10.28125 -8.09375 C 10.71875 -7.3125 10.9375 -6.398438 10.9375 -5.359375 Z M 7.6875 -6.203125 C 7.6875 -6.742188 7.5 -7.175781 7.125 -7.5 C 6.75 -7.820312 6.285156 -7.984375 5.734375 -7.984375 C 5.203125 -7.984375 4.75 -7.828125 4.375 -7.515625 C 4.007812 -7.203125 3.785156 -6.765625 3.703125 -6.203125 Z M 7.6875 -6.203125 "/></g></g></g><g fill="#2563eb" fill-opacity="1"><g transform="translate(76.746964, 20.688246)"><g><path d="M 4.34375 -13.765625 L 4.34375 0 L 1.15625 0 L 1.15625 -13.765625 Z M 4.34375 -13.765625 "/></g></g></g><g fill="#2563eb" fill-opacity="1"><g transform="translate(82.235898, 20.688246)"><g><path d="M 4.34375 -13.765625 L 4.34375 0 L 1.15625 0 L 1.15625 -13.765625 Z M 4.34375 -13.765625 "/></g></g></g><g fill="#2563eb" fill-opacity="1"><g transform="translate(87.724832, 20.688246)"><g><path d="M 2.75 -11.46875 C 2.195312 -11.46875 1.742188 -11.628906 1.390625 -11.953125 C 1.035156 -12.285156 0.859375 -12.691406 0.859375 -13.171875 C 0.859375 -13.671875 1.035156 -14.082031 1.390625 -14.40625 C 1.742188 -14.738281 2.195312 -14.90625 2.75 -14.90625 C 3.300781 -14.90625 3.753906 -14.738281 4.109375 -14.40625 C 4.460938 -14.082031 4.640625 -13.671875 4.640625 -13.171875 C 4.640625 -12.691406 4.460938 -12.285156 4.109375 -11.953125 C 3.753906 -11.628906 3.300781 -11.46875 2.75 -11.46875 Z M 4.34375 -10.390625 L 4.34375 0 L 1.15625 0 L 1.15625 -10.390625 Z M 4.34375 -10.390625 "/></g></g></g><g fill="#2563eb" fill-opacity="1"><g transform="translate(93.213766, 20.688246)"><g><path d="M 5.09375 -10.53125 C 5.832031 -10.53125 6.476562 -10.378906 7.03125 -10.078125 C 7.582031 -9.785156 8.003906 -9.394531 8.296875 -8.90625 L 8.296875 -10.390625 L 11.484375 -10.390625 L 11.484375 -0.015625 C 11.484375 0.941406 11.289062 1.804688 10.90625 2.578125 C 10.53125 3.347656 9.953125 3.960938 9.171875 4.421875 C 8.398438 4.890625 7.441406 5.125 6.296875 5.125 C 4.753906 5.125 3.503906 4.757812 2.546875 4.03125 C 1.585938 3.300781 1.039062 2.316406 0.90625 1.078125 L 4.0625 1.078125 C 4.15625 1.472656 4.390625 1.785156 4.765625 2.015625 C 5.140625 2.242188 5.597656 2.359375 6.140625 2.359375 C 6.796875 2.359375 7.316406 2.171875 7.703125 1.796875 C 8.097656 1.421875 8.296875 0.816406 8.296875 -0.015625 L 8.296875 -1.484375 C 7.984375 -1.003906 7.554688 -0.609375 7.015625 -0.296875 C 6.472656 0.00390625 5.832031 0.15625 5.09375 0.15625 C 4.238281 0.15625 3.460938 -0.0625 2.765625 -0.5 C 2.078125 -0.945312 1.53125 -1.578125 1.125 -2.390625 C 0.71875 -3.203125 0.515625 -4.140625 0.515625 -5.203125 C 0.515625 -6.273438 0.71875 -7.210938 1.125 -8.015625 C 1.53125 -8.828125 2.078125 -9.445312 2.765625 -9.875 C 3.460938 -10.3125 4.238281 -10.53125 5.09375 -10.53125 Z M 8.296875 -5.1875 C 8.296875 -5.988281 8.078125 -6.617188 7.640625 -7.078125 C 7.203125 -7.535156 6.664062 -7.765625 6.03125 -7.765625 C 5.394531 -7.765625 4.859375 -7.535156 4.421875 -7.078125 C 3.984375 -6.628906 3.765625 -6.003906 3.765625 -5.203125 C 3.765625 -4.410156 3.984375 -3.78125 4.421875 -3.3125 C 4.859375 -2.851562 5.394531 -2.625 6.03125 -2.625 C 6.664062 -2.625 7.203125 -2.851562 7.640625 -3.3125 C 8.078125 -3.769531 8.296875 -4.394531 8.296875 -5.1875 Z M 8.296875 -5.1875 "/></g></g></g><g fill="#2563eb" fill-opacity="1"><g transform="translate(105.847607, 20.688246)"><g><path d="M 10.9375 -5.359375 C 10.9375 -5.054688 10.921875 -4.742188 10.890625 -4.421875 L 3.6875 -4.421875 C 3.738281 -3.785156 3.945312 -3.296875 4.3125 -2.953125 C 4.675781 -2.609375 5.125 -2.4375 5.65625 -2.4375 C 6.445312 -2.4375 7 -2.769531 7.3125 -3.4375 L 10.703125 -3.4375 C 10.523438 -2.757812 10.207031 -2.144531 9.75 -1.59375 C 9.300781 -1.050781 8.734375 -0.625 8.046875 -0.3125 C 7.367188 0 6.609375 0.15625 5.765625 0.15625 C 4.753906 0.15625 3.847656 -0.0625 3.046875 -0.5 C 2.253906 -0.9375 1.632812 -1.554688 1.1875 -2.359375 C 0.738281 -3.171875 0.515625 -4.113281 0.515625 -5.1875 C 0.515625 -6.269531 0.734375 -7.210938 1.171875 -8.015625 C 1.617188 -8.828125 2.238281 -9.445312 3.03125 -9.875 C 3.820312 -10.3125 4.734375 -10.53125 5.765625 -10.53125 C 6.773438 -10.53125 7.671875 -10.316406 8.453125 -9.890625 C 9.234375 -9.472656 9.84375 -8.875 10.28125 -8.09375 C 10.71875 -7.3125 10.9375 -6.398438 10.9375 -5.359375 Z M 7.6875 -6.203125 C 7.6875 -6.742188 7.5 -7.175781 7.125 -7.5 C 6.75 -7.820312 6.285156 -7.984375 5.734375 -7.984375 C 5.203125 -7.984375 4.75 -7.828125 4.375 -7.515625 C 4.007812 -7.203125 3.785156 -6.765625 3.703125 -6.203125 Z M 7.6875 -6.203125 "/></g></g></g><g fill="#2563eb" fill-opacity="1"><g transform="translate(117.309227, 20.688246)"><g><path d="M 7.484375 -10.5 C 8.691406 -10.5 9.660156 -10.101562 10.390625 -9.3125 C 11.117188 -8.519531 11.484375 -7.4375 11.484375 -6.0625 L 11.484375 0 L 8.3125 0 L 8.3125 -5.640625 C 8.3125 -6.335938 8.128906 -6.875 7.765625 -7.25 C 7.410156 -7.632812 6.929688 -7.828125 6.328125 -7.828125 C 5.722656 -7.828125 5.238281 -7.632812 4.875 -7.25 C 4.519531 -6.875 4.34375 -6.335938 4.34375 -5.640625 L 4.34375 0 L 1.15625 0 L 1.15625 -10.390625 L 4.34375 -10.390625 L 4.34375 -9 C 4.65625 -9.46875 5.082031 -9.832031 5.625 -10.09375 C 6.175781 -10.363281 6.796875 -10.5 7.484375 -10.5 Z M 7.484375 -10.5 "/></g></g></g><g fill="#2563eb" fill-opacity="1"><g transform="translate(129.850034, 20.688246)"><g><path d="M 0.515625 -5.1875 C 0.515625 -6.269531 0.734375 -7.210938 1.171875 -8.015625 C 1.617188 -8.828125 2.234375 -9.445312 3.015625 -9.875 C 3.804688 -10.3125 4.710938 -10.53125 5.734375 -10.53125 C 7.035156 -10.53125 8.125 -10.1875 9 -9.5 C 9.875 -8.820312 10.445312 -7.863281 10.71875 -6.625 L 7.328125 -6.625 C 7.046875 -7.414062 6.492188 -7.8125 5.671875 -7.8125 C 5.085938 -7.8125 4.625 -7.582031 4.28125 -7.125 C 3.9375 -6.675781 3.765625 -6.03125 3.765625 -5.1875 C 3.765625 -4.34375 3.9375 -3.691406 4.28125 -3.234375 C 4.625 -2.785156 5.085938 -2.5625 5.671875 -2.5625 C 6.492188 -2.5625 7.046875 -2.960938 7.328125 -3.765625 L 10.71875 -3.765625 C 10.445312 -2.546875 9.867188 -1.585938 8.984375 -0.890625 C 8.109375 -0.191406 7.023438 0.15625 5.734375 0.15625 C 4.710938 0.15625 3.804688 -0.0625 3.015625 -0.5 C 2.234375 -0.9375 1.617188 -1.554688 1.171875 -2.359375 C 0.734375 -3.171875 0.515625 -4.113281 0.515625 -5.1875 Z M 0.515625 -5.1875 "/></g></g></g><g fill="#2563eb" fill-opacity="1"><g transform="translate(141.106988, 20.688246)"><g><path d="M 10.9375 -5.359375 C 10.9375 -5.054688 10.921875 -4.742188 10.890625 -4.421875 L 3.6875 -4.421875 C 3.738281 -3.785156 3.945312 -3.296875 4.3125 -2.953125 C 4.675781 -2.609375 5.125 -2.4375 5.65625 -2.4375 C 6.445312 -2.4375 7 -2.769531 7.3125 -3.4375 L 10.703125 -3.4375 C 10.523438 -2.757812 10.207031 -2.144531 9.75 -1.59375 C 9.300781 -1.050781 8.734375 -0.625 8.046875 -0.3125 C 7.367188 0 6.609375 0.15625 5.765625 0.15625 C 4.753906 0.15625 3.847656 -0.0625 3.046875 -0.5 C 2.253906 -0.9375 1.632812 -1.554688 1.1875 -2.359375 C 0.738281 -3.171875 0.515625 -4.113281 0.515625 -5.1875 C 0.515625 -6.269531 0.734375 -7.210938 1.171875 -8.015625 C 1.617188 -8.828125 2.238281 -9.445312 3.03125 -9.875 C 3.820312 -10.3125 4.734375 -10.53125 5.765625 -10.53125 C 6.773438 -10.53125 7.671875 -10.316406 8.453125 -9.890625 C 9.234375 -9.472656 9.84375 -8.875 10.28125 -8.09375 C 10.71875 -7.3125 10.9375 -6.398438 10.9375 -5.359375 Z M 7.6875 -6.203125 C 7.6875 -6.742188 7.5 -7.175781 7.125 -7.5 C 6.75 -7.820312 6.285156 -7.984375 5.734375 -7.984375 C 5.203125 -7.984375 4.75 -7.828125 4.375 -7.515625 C 4.007812 -7.203125 3.785156 -6.765625 3.703125 -6.203125 Z M 7.6875 -6.203125 "/></g></g></g></g></g></svg>